<svg width="879" height="491" viewBox="0 0 879 491" fill="none" xmlns="http://www.w3.org/2000/svg">
<g filter="url(#filter0_d_571_1244)">
<mask id="path-1-outside-1_571_1244" maskUnits="userSpaceOnUse" x="277" y="146.5" width="330" height="110" fill="black">
<rect fill="white" x="277" y="146.5" width="330" height="110"/>
<path d="M355.41 231.336C357.043 231.336 357.86 232.252 357.86 234.085C357.86 235.599 356.705 237.113 354.394 238.627C350.091 241.456 346.465 243.309 343.516 244.185C337.978 245.819 332.161 246.636 326.065 246.636C319.969 246.636 314.092 245.56 308.434 243.408C302.816 241.217 298.015 238.169 294.03 234.264C285.703 226.056 281.539 215.458 281.539 202.469C281.539 196.213 282.715 190.476 285.066 185.256C287.416 179.997 290.664 175.495 294.807 171.749C303.573 163.82 314.59 159.856 327.858 159.856C335.309 159.856 341.863 161.131 347.521 163.681C353.537 166.35 356.545 168.621 356.545 170.494C356.545 171.251 356.286 171.909 355.768 172.466C355.29 173.024 354.732 173.303 354.095 173.303C352.82 173.303 351.664 172.745 350.629 171.63C349.593 170.474 348.178 169.438 346.385 168.522C344.632 167.605 342.7 166.809 340.588 166.131C336.285 164.816 332.36 164.159 328.814 164.159C325.308 164.159 322.399 164.398 320.088 164.876V241.496C322.877 241.974 325.348 242.213 327.499 242.213C329.651 242.213 331.842 242.073 334.073 241.795C336.305 241.516 338.496 241.057 340.648 240.42C345.469 238.986 349.095 236.874 351.525 234.085C352.402 233.049 353.099 232.332 353.617 231.933C354.135 231.535 354.732 231.336 355.41 231.336ZM399.935 241.197C398.541 240.4 397.325 239.563 396.289 238.687C395.293 237.81 394.795 236.874 394.795 235.878C394.795 233.965 395.612 233.009 397.246 233.009C398.321 233.009 399.517 233.607 400.832 234.802C402.146 235.997 403.621 237.053 405.254 237.97C406.888 238.846 408.661 239.603 410.573 240.241C414.518 241.555 418.164 242.213 421.511 242.213C424.857 242.213 427.427 241.994 429.22 241.555C431.053 241.117 432.587 240.52 433.822 239.763C436.452 238.129 437.767 236.037 437.767 233.487C437.767 231.136 436.631 228.766 434.36 226.375C432.448 224.343 429.738 221.913 426.232 219.084L416.012 211.075C405.772 203.186 399.736 195.974 397.903 189.44C397.266 187.169 396.947 184.639 396.947 181.85C396.947 179.061 397.564 176.311 398.8 173.602C400.075 170.893 401.947 168.522 404.418 166.49C409.717 162.067 416.929 159.856 426.053 159.856C430.714 159.856 434.898 160.553 438.604 161.948C442.309 163.302 444.839 164.518 446.194 165.593C447.548 166.669 448.226 167.645 448.226 168.522C448.226 170.355 447.469 171.271 445.955 171.271C445.078 171.271 444.142 170.833 443.146 169.956C442.15 169.08 441.034 168.323 439.799 167.685C438.604 167.008 437.229 166.41 435.675 165.892C432.328 164.777 429.041 164.219 425.814 164.219C419.877 164.219 416.909 166.171 416.909 170.076C416.909 171.709 417.446 173.223 418.522 174.618C420.435 177.048 424.16 180.535 429.698 185.077C435.277 189.579 439.739 193.524 443.086 196.911C446.473 200.297 449.043 203.345 450.796 206.055C453.585 210.318 454.979 214.761 454.979 219.382C454.979 223.964 454.162 227.869 452.529 231.096C450.935 234.284 448.684 237.033 445.775 239.344C439.639 244.205 432.029 246.636 422.945 246.636C413.861 246.636 406.191 244.823 399.935 241.197ZM490.779 246.396C490.022 246.317 489.444 245.978 489.046 245.38C488.647 244.783 488.488 244.125 488.568 243.408C488.767 242.173 489.145 241.038 489.703 240.002C490.261 238.966 490.659 238.189 490.898 237.671C491.177 237.153 491.456 236.575 491.735 235.938L494.006 230.678L518.57 157.107L544.986 208.146L570.626 157.107L601.286 245.5H569.191L554.37 199.839L531.42 247.652L507.274 204.62L498.907 230.738C497.592 233.646 496.656 236.117 496.098 238.149C495.54 240.181 495.082 241.755 494.723 242.87C493.927 245.38 492.612 246.556 490.779 246.396Z"/>
</mask>
<path d="M354.394 238.627L352.202 235.281L352.196 235.285L354.394 238.627ZM343.516 244.185L344.648 248.022L344.656 248.019L343.516 244.185ZM308.434 243.408L306.98 247.135L306.996 247.141L307.012 247.147L308.434 243.408ZM294.03 234.264L291.223 237.113L291.231 237.121L294.03 234.264ZM285.066 185.256L288.713 186.899L288.717 186.889L285.066 185.256ZM294.807 171.749L297.49 174.717L297.491 174.716L294.807 171.749ZM347.521 163.681L345.877 167.328L345.888 167.332L345.898 167.337L347.521 163.681ZM355.768 172.466L352.837 169.745L352.783 169.803L352.731 169.863L355.768 172.466ZM350.629 171.63L347.65 174.3L347.674 174.326L347.697 174.351L350.629 171.63ZM346.385 168.522L344.532 172.067L344.548 172.075L344.565 172.084L346.385 168.522ZM340.588 166.131L341.81 162.322L341.783 162.314L341.757 162.306L340.588 166.131ZM320.088 164.876L319.278 160.959L316.088 161.619V164.876H320.088ZM320.088 241.496H316.088V244.868L319.412 245.438L320.088 241.496ZM340.648 240.42L341.784 244.255L341.788 244.254L340.648 240.42ZM351.525 234.085L354.541 236.713L354.56 236.691L354.579 236.669L351.525 234.085ZM355.41 235.336C355.454 235.336 355.318 235.343 355.081 235.254C354.819 235.156 354.518 234.972 354.262 234.684C353.76 234.121 353.86 233.679 353.86 234.085H361.86C361.86 232.658 361.552 230.841 360.234 229.361C358.837 227.794 356.97 227.336 355.41 227.336V235.336ZM353.86 234.085C353.86 233.76 353.999 233.687 353.814 233.929C353.605 234.203 353.134 234.671 352.202 235.281L356.586 241.973C359.12 240.312 361.86 237.755 361.86 234.085H353.86ZM352.196 235.285C348.032 238.023 344.783 239.636 342.377 240.351L344.656 248.019C348.147 246.982 352.15 244.889 356.591 241.969L352.196 235.285ZM342.385 240.349C337.234 241.868 331.799 242.636 326.065 242.636V250.636C332.523 250.636 338.722 249.77 344.648 248.022L342.385 240.349ZM326.065 242.636C320.451 242.636 315.056 241.647 309.856 239.669L307.012 247.147C313.127 249.472 319.486 250.636 326.065 250.636V242.636ZM309.888 239.682C304.731 237.67 300.399 234.904 296.83 231.407L291.231 237.121C295.631 241.433 300.901 244.763 306.98 247.135L309.888 239.682ZM296.838 231.415C289.362 224.046 285.539 214.517 285.539 202.469H277.539C277.539 216.398 282.044 228.066 291.223 237.113L296.838 231.415ZM285.539 202.469C285.539 196.727 286.615 191.556 288.713 186.899L281.418 183.614C278.814 189.396 277.539 195.7 277.539 202.469H285.539ZM288.717 186.889C290.849 182.12 293.771 178.077 297.49 174.717L292.125 168.782C287.556 172.912 283.984 177.873 281.414 183.624L288.717 186.889ZM297.491 174.716C305.429 167.535 315.451 163.856 327.858 163.856V155.856C313.729 155.856 301.717 160.106 292.124 168.783L297.491 174.716ZM327.858 163.856C334.854 163.856 340.829 165.052 345.877 167.328L349.164 160.034C342.897 157.209 335.764 155.856 327.858 155.856V163.856ZM345.898 167.337C348.801 168.625 350.735 169.715 351.879 170.579C352.45 171.009 352.682 171.279 352.744 171.365C352.803 171.446 352.545 171.13 352.545 170.494H360.545C360.545 168.922 359.912 167.62 359.218 166.665C358.528 165.714 357.633 164.899 356.699 164.194C354.836 162.787 352.257 161.406 349.143 160.025L345.898 167.337ZM352.545 170.494C352.545 170.407 352.562 170.26 352.629 170.089C352.697 169.919 352.783 169.803 352.837 169.745L358.7 175.188C359.9 173.895 360.545 172.267 360.545 170.494H352.545ZM352.731 169.863C352.778 169.808 352.928 169.654 353.203 169.516C353.492 169.372 353.807 169.303 354.095 169.303V177.303C356.084 177.303 357.696 176.364 358.805 175.07L352.731 169.863ZM354.095 169.303C354.064 169.303 354.05 169.301 354.011 169.283C353.957 169.257 353.801 169.167 353.56 168.908L347.697 174.351C349.331 176.111 351.493 177.303 354.095 177.303V169.303ZM353.607 168.96C352.161 167.347 350.312 166.037 348.206 164.96L344.565 172.084C346.044 172.84 347.024 173.601 347.65 174.3L353.607 168.96ZM348.238 164.977C346.26 163.943 344.113 163.061 341.81 162.322L339.366 169.94C341.286 170.556 343.004 171.268 344.532 172.067L348.238 164.977ZM341.757 162.306C337.171 160.905 332.846 160.159 328.814 160.159V168.159C331.874 168.159 335.398 168.728 339.419 169.957L341.757 162.306ZM328.814 160.159C325.153 160.159 321.95 160.406 319.278 160.959L320.899 168.793C322.848 168.39 325.462 168.159 328.814 168.159V160.159ZM316.088 164.876V241.496H324.088V164.876H316.088ZM319.412 245.438C322.359 245.943 325.063 246.213 327.499 246.213V238.213C325.632 238.213 323.395 238.004 320.764 237.553L319.412 245.438ZM327.499 246.213C329.824 246.213 332.181 246.062 334.57 245.764L333.577 237.825C331.503 238.085 329.478 238.213 327.499 238.213V246.213ZM334.57 245.764C337.017 245.458 339.423 244.955 341.784 244.255L339.511 236.585C337.57 237.16 335.592 237.574 333.577 237.825L334.57 245.764ZM341.788 244.254C347.083 242.679 351.463 240.244 354.541 236.713L348.509 231.457C346.726 233.503 343.855 235.293 339.507 236.586L341.788 244.254ZM354.579 236.669C355.424 235.67 355.894 235.228 356.056 235.104L351.178 228.763C350.304 229.435 349.379 230.428 348.471 231.501L354.579 236.669ZM356.056 235.104C355.974 235.166 355.859 235.233 355.718 235.28C355.58 235.326 355.469 235.336 355.41 235.336V227.336C353.885 227.336 352.422 227.806 351.178 228.763L356.056 235.104ZM399.935 241.197L401.941 237.736L401.93 237.73L401.92 237.724L399.935 241.197ZM396.289 238.687L393.647 241.69L393.676 241.715L393.706 241.74L396.289 238.687ZM405.254 237.97L403.297 241.458L403.33 241.476L403.363 241.494L405.254 237.97ZM429.22 241.555L428.29 237.665L428.28 237.667L428.27 237.67L429.22 241.555ZM433.822 239.763L435.912 243.173L435.923 243.167L435.933 243.16L433.822 239.763ZM434.36 226.375L431.447 229.116L431.454 229.123L431.46 229.13L434.36 226.375ZM426.232 219.084L428.744 215.971L428.722 215.953L428.699 215.935L426.232 219.084ZM416.012 211.075L418.479 207.927L418.466 207.916L418.453 207.906L416.012 211.075ZM397.903 189.44L401.754 188.36L401.754 188.359L397.903 189.44ZM398.8 173.602L395.18 171.899L395.17 171.921L395.16 171.943L398.8 173.602ZM404.418 166.49L406.959 169.579L406.97 169.57L406.981 169.561L404.418 166.49ZM438.604 161.948L437.195 165.691L437.212 165.698L437.23 165.704L438.604 161.948ZM439.799 167.685L437.827 171.165L437.895 171.204L437.964 171.24L439.799 167.685ZM435.675 165.892L436.94 162.097L435.675 165.892ZM418.522 174.618L415.355 177.061L415.367 177.076L415.379 177.092L418.522 174.618ZM429.698 185.077L427.162 188.17L427.174 188.18L427.186 188.19L429.698 185.077ZM443.086 196.911L440.241 199.722L440.249 199.731L440.257 199.739L443.086 196.911ZM450.796 206.055L447.437 208.228L447.443 208.236L447.448 208.245L450.796 206.055ZM452.529 231.096L448.96 229.29L448.956 229.299L448.951 229.308L452.529 231.096ZM445.775 239.344L448.259 242.48L448.264 242.476L445.775 239.344ZM401.92 237.724C400.7 237.027 399.692 236.326 398.873 235.633L393.706 241.74C394.958 242.8 396.381 243.773 397.951 244.67L401.92 237.724ZM398.932 235.684C398.708 235.487 398.674 235.4 398.7 235.449C398.715 235.476 398.741 235.532 398.762 235.615C398.784 235.699 398.795 235.789 398.795 235.878H390.795C390.795 238.373 392.09 240.32 393.647 241.69L398.932 235.684ZM398.795 235.878C398.795 235.397 398.911 235.783 398.449 236.324C398.206 236.609 397.906 236.806 397.628 236.915C397.373 237.014 397.219 237.009 397.246 237.009V229.009C395.633 229.009 393.748 229.511 392.366 231.128C391.088 232.625 390.795 234.446 390.795 235.878H398.795ZM397.246 237.009C397.03 237.009 396.986 236.948 397.16 237.035C397.343 237.126 397.671 237.335 398.141 237.762L403.522 231.842C401.921 230.386 399.791 229.009 397.246 229.009V237.009ZM398.141 237.762C399.691 239.171 401.414 240.402 403.297 241.458L407.211 234.481C405.827 233.705 404.602 232.823 403.522 231.842L398.141 237.762ZM403.363 241.494C405.214 242.487 407.198 243.332 409.309 244.035L411.838 236.446C410.123 235.874 408.562 235.205 407.146 234.445L403.363 241.494ZM409.309 244.035C413.566 245.455 417.644 246.213 421.511 246.213V238.213C418.683 238.213 415.47 237.656 411.838 236.446L409.309 244.035ZM421.511 246.213C424.964 246.213 427.911 245.993 430.17 245.441L428.27 237.67C426.944 237.994 424.751 238.213 421.511 238.213V246.213ZM430.151 245.446C432.277 244.937 434.229 244.205 435.912 243.173L431.732 236.352C430.945 236.834 429.83 237.297 428.29 237.665L430.151 245.446ZM435.933 243.16C439.446 240.978 441.767 237.732 441.767 233.487H433.767C433.767 234.342 433.458 235.28 431.712 236.365L435.933 243.16ZM441.767 233.487C441.767 229.76 439.951 226.453 437.26 223.62L431.46 229.13C433.311 231.078 433.767 232.513 433.767 233.487H441.767ZM437.273 223.634C435.183 221.413 432.317 218.854 428.744 215.971L423.72 222.197C427.159 224.971 429.712 227.273 431.447 229.116L437.273 223.634ZM428.699 215.935L418.479 207.927L413.545 214.223L423.765 222.232L428.699 215.935ZM418.453 207.906C408.367 200.136 403.223 193.594 401.754 188.36L394.052 190.52C396.249 198.354 403.177 206.236 413.571 214.244L418.453 207.906ZM401.754 188.359C401.232 186.497 400.947 184.338 400.947 181.85H392.947C392.947 184.94 393.3 187.841 394.052 190.521L401.754 188.359ZM400.947 181.85C400.947 179.671 401.425 177.486 402.439 175.261L395.16 171.943C393.704 175.137 392.947 178.45 392.947 181.85H400.947ZM402.419 175.305C403.425 173.168 404.914 171.261 406.959 169.579L401.876 163.401C398.98 165.783 396.725 168.617 395.18 171.899L402.419 175.305ZM406.981 169.561C411.357 165.908 417.561 163.856 426.053 163.856V155.856C416.296 155.856 408.076 158.226 401.855 163.419L406.981 169.561ZM426.053 163.856C430.317 163.856 434.012 164.493 437.195 165.691L440.012 158.204C435.784 156.613 431.112 155.856 426.053 155.856V163.856ZM437.23 165.704C440.915 167.052 442.902 168.087 443.706 168.726L448.681 162.461C446.776 160.948 443.703 159.553 439.977 158.191L437.23 165.704ZM443.706 168.726C443.944 168.915 444.118 169.072 444.241 169.196C444.365 169.322 444.419 169.395 444.431 169.413C444.467 169.464 444.226 169.142 444.226 168.522H452.226C452.226 165.651 450.15 163.627 448.681 162.461L443.706 168.726ZM444.226 168.522C444.226 168.988 444.114 168.593 444.574 168.036C444.822 167.736 445.137 167.517 445.451 167.39C445.741 167.273 445.938 167.271 445.955 167.271V175.271C447.551 175.271 449.404 174.751 450.742 173.131C451.959 171.658 452.226 169.889 452.226 168.522H444.226ZM445.955 167.271C446.198 167.271 446.322 167.334 446.291 167.32C446.247 167.299 446.078 167.208 445.788 166.953L440.503 172.959C441.867 174.159 443.712 175.271 445.955 175.271V167.271ZM445.788 166.953C444.535 165.851 443.146 164.911 441.633 164.131L437.964 171.24C438.922 171.734 439.764 172.309 440.503 172.959L445.788 166.953ZM441.771 164.205C440.313 163.379 438.694 162.682 436.94 162.097L434.41 169.687C435.764 170.138 436.894 170.637 437.827 171.165L441.771 164.205ZM436.94 162.097C433.223 160.858 429.509 160.219 425.814 160.219V168.219C428.573 168.219 431.433 168.695 434.41 169.687L436.94 162.097ZM425.814 160.219C422.534 160.219 419.379 160.735 416.937 162.341C414.202 164.14 412.909 166.935 412.909 170.076H420.909C420.909 169.61 420.995 169.397 421.033 169.322C421.063 169.262 421.124 169.162 421.333 169.025C421.859 168.679 423.157 168.219 425.814 168.219V160.219ZM412.909 170.076C412.909 172.664 413.784 175.025 415.355 177.061L421.689 172.175C421.109 171.422 420.909 170.754 420.909 170.076H412.909ZM415.379 177.092C417.586 179.896 421.614 183.62 427.162 188.17L432.235 181.984C426.706 177.45 423.284 174.201 421.666 172.144L415.379 177.092ZM427.186 188.19C432.7 192.64 437.037 196.481 440.241 199.722L445.931 194.099C442.441 190.567 437.853 186.519 432.211 181.964L427.186 188.19ZM440.257 199.739C443.531 203.012 445.892 205.839 447.437 208.228L454.154 203.882C452.194 200.852 449.414 197.582 445.914 194.082L440.257 199.739ZM447.448 208.245C449.857 211.926 450.979 215.617 450.979 219.382H458.979C458.979 213.904 457.313 208.71 454.143 203.865L447.448 208.245ZM450.979 219.382C450.979 223.5 450.245 226.752 448.96 229.29L456.098 232.903C458.08 228.986 458.979 224.429 458.979 219.382H450.979ZM448.951 229.308C447.629 231.951 445.759 234.248 443.287 236.212L448.264 242.476C451.609 239.818 454.241 236.617 456.107 232.885L448.951 229.308ZM443.292 236.209C437.973 240.422 431.279 242.636 422.945 242.636V250.636C432.78 250.636 441.306 247.988 448.259 242.479L443.292 236.209ZM422.945 242.636C414.387 242.636 407.449 240.929 401.941 237.736L397.929 244.658C404.932 248.716 413.334 250.636 422.945 250.636V242.636ZM490.779 246.396L490.36 250.375L490.396 250.378L490.432 250.381L490.779 246.396ZM489.046 245.38L485.718 247.599L489.046 245.38ZM488.568 243.408L484.619 242.771L484.603 242.869L484.592 242.966L488.568 243.408ZM490.898 237.671L487.377 235.774L487.318 235.883L487.267 235.994L490.898 237.671ZM491.735 235.938L495.4 237.541L495.404 237.532L495.407 237.523L491.735 235.938ZM494.006 230.678L497.679 232.264L497.746 232.107L497.8 231.945L494.006 230.678ZM518.57 157.107L522.122 155.268L517.773 146.864L514.776 155.84L518.57 157.107ZM544.986 208.146L541.434 209.985L545.04 216.952L548.561 209.942L544.986 208.146ZM570.626 157.107L574.405 155.796L571.302 146.85L567.051 155.311L570.626 157.107ZM601.286 245.5V249.5H606.907L605.065 244.189L601.286 245.5ZM569.191 245.5L565.387 246.735L566.284 249.5H569.191V245.5ZM554.37 199.839L558.174 198.604L555.088 189.098L550.763 198.108L554.37 199.839ZM531.42 247.652L527.931 249.609L531.696 256.319L535.026 249.382L531.42 247.652ZM507.274 204.62L510.763 202.663L506.268 194.652L503.465 203.4L507.274 204.62ZM498.907 230.738L502.552 232.386L502.646 232.177L502.716 231.958L498.907 230.738ZM494.723 242.87L490.915 241.646L490.913 241.653L490.911 241.66L494.723 242.87ZM491.198 242.418C491.308 242.43 491.536 242.476 491.801 242.632C492.072 242.791 492.262 242.994 492.374 243.162L485.718 247.599C486.82 249.253 488.501 250.179 490.36 250.375L491.198 242.418ZM492.374 243.162C492.418 243.228 492.477 243.343 492.515 243.497C492.552 243.65 492.551 243.777 492.543 243.85L484.592 242.966C484.409 244.614 484.794 246.215 485.718 247.599L492.374 243.162ZM492.517 244.045C492.649 243.223 492.892 242.517 493.225 241.898L486.181 238.105C485.399 239.558 484.884 241.123 484.619 242.771L492.517 244.045ZM493.225 241.898C493.79 240.849 494.237 239.982 494.53 239.347L487.267 235.994C487.082 236.395 486.732 237.083 486.181 238.105L493.225 241.898ZM494.42 239.567C494.759 238.938 495.085 238.26 495.4 237.541L488.071 234.334C487.828 234.89 487.596 235.367 487.377 235.774L494.42 239.567ZM495.407 237.523L497.679 232.264L490.334 229.092L488.063 234.352L495.407 237.523ZM497.8 231.945L522.364 158.373L514.776 155.84L490.212 229.411L497.8 231.945ZM515.018 158.945L541.434 209.985L548.539 206.308L522.122 155.268L515.018 158.945ZM548.561 209.942L574.2 158.902L567.051 155.311L541.412 206.351L548.561 209.942ZM566.847 158.417L597.506 246.811L605.065 244.189L574.405 155.796L566.847 158.417ZM601.286 241.5H569.191V249.5H601.286V241.5ZM572.996 244.265L558.174 198.604L550.565 201.074L565.387 246.735L572.996 244.265ZM550.763 198.108L527.813 245.921L535.026 249.382L557.976 201.57L550.763 198.108ZM534.908 245.694L510.763 202.663L503.786 206.578L527.931 249.609L534.908 245.694ZM503.465 203.4L495.098 229.518L502.716 231.958L511.084 205.841L503.465 203.4ZM495.262 229.09C493.9 232.103 492.874 234.782 492.241 237.09L499.955 239.208C500.437 237.452 501.284 235.19 502.552 232.386L495.262 229.09ZM492.241 237.09C491.688 239.103 491.248 240.612 490.915 241.646L498.532 244.094C498.916 242.897 499.392 241.259 499.955 239.208L492.241 237.09ZM490.911 241.66C490.778 242.078 490.652 242.35 490.558 242.514C490.465 242.676 490.425 242.696 490.474 242.652C490.533 242.599 490.655 242.515 490.828 242.459C490.996 242.405 491.112 242.41 491.125 242.412L490.432 250.381C492.395 250.552 494.286 249.975 495.806 248.617C497.198 247.372 498.02 245.705 498.536 244.081L490.911 241.66Z" fill="url(#paint0_linear_571_1244)" mask="url(#path-1-outside-1_571_1244)"/>
</g>
<path d="M152.723 339.871C153.257 339.871 153.523 340.171 153.523 340.77C153.523 341.264 153.146 341.759 152.391 342.254C150.984 343.178 149.799 343.784 148.836 344.07C147.026 344.604 145.125 344.871 143.133 344.871C141.141 344.871 139.22 344.52 137.371 343.816C135.535 343.1 133.966 342.104 132.664 340.828C129.943 338.146 128.582 334.682 128.582 330.438C128.582 328.393 128.966 326.518 129.734 324.812C130.503 323.094 131.564 321.622 132.918 320.398C135.783 317.807 139.383 316.512 143.719 316.512C146.154 316.512 148.296 316.928 150.145 317.762C152.111 318.634 153.094 319.376 153.094 319.988C153.094 320.236 153.009 320.451 152.84 320.633C152.684 320.815 152.501 320.906 152.293 320.906C151.876 320.906 151.499 320.724 151.16 320.359C150.822 319.982 150.359 319.643 149.773 319.344C149.201 319.044 148.569 318.784 147.879 318.562C146.473 318.133 145.19 317.918 144.031 317.918C142.885 317.918 141.935 317.996 141.18 318.152V343.191C142.091 343.348 142.898 343.426 143.602 343.426C144.305 343.426 145.021 343.38 145.75 343.289C146.479 343.198 147.195 343.048 147.898 342.84C149.474 342.371 150.659 341.681 151.453 340.77C151.74 340.431 151.967 340.197 152.137 340.066C152.306 339.936 152.501 339.871 152.723 339.871ZM307.586 343.094C307.13 342.833 306.733 342.56 306.395 342.273C306.069 341.987 305.906 341.681 305.906 341.355C305.906 340.73 306.173 340.418 306.707 340.418C307.059 340.418 307.449 340.613 307.879 341.004C308.309 341.395 308.79 341.74 309.324 342.039C309.858 342.326 310.438 342.573 311.062 342.781C312.352 343.211 313.543 343.426 314.637 343.426C315.73 343.426 316.57 343.354 317.156 343.211C317.755 343.068 318.257 342.872 318.66 342.625C319.52 342.091 319.949 341.408 319.949 340.574C319.949 339.806 319.578 339.031 318.836 338.25C318.211 337.586 317.326 336.792 316.18 335.867L312.84 333.25C309.493 330.672 307.521 328.315 306.922 326.18C306.714 325.438 306.609 324.611 306.609 323.699C306.609 322.788 306.811 321.889 307.215 321.004C307.632 320.118 308.243 319.344 309.051 318.68C310.783 317.234 313.139 316.512 316.121 316.512C317.645 316.512 319.012 316.74 320.223 317.195C321.434 317.638 322.26 318.035 322.703 318.387C323.146 318.738 323.367 319.057 323.367 319.344C323.367 319.943 323.12 320.242 322.625 320.242C322.339 320.242 322.033 320.099 321.707 319.812C321.382 319.526 321.017 319.279 320.613 319.07C320.223 318.849 319.773 318.654 319.266 318.484C318.172 318.12 317.098 317.938 316.043 317.938C314.103 317.938 313.133 318.576 313.133 319.852C313.133 320.385 313.309 320.88 313.66 321.336C314.285 322.13 315.503 323.27 317.312 324.754C319.135 326.225 320.594 327.514 321.688 328.621C322.794 329.728 323.634 330.724 324.207 331.609C325.118 333.003 325.574 334.454 325.574 335.965C325.574 337.462 325.307 338.738 324.773 339.793C324.253 340.835 323.517 341.733 322.566 342.488C320.561 344.077 318.074 344.871 315.105 344.871C312.137 344.871 309.63 344.279 307.586 343.094ZM465.711 344.793C465.464 344.767 465.275 344.656 465.145 344.461C465.014 344.266 464.962 344.051 464.988 343.816C465.053 343.413 465.177 343.042 465.359 342.703C465.542 342.365 465.672 342.111 465.75 341.941C465.841 341.772 465.932 341.583 466.023 341.375L466.766 339.656L474.793 315.613L483.426 332.293L491.805 315.613L501.824 344.5H491.336L486.492 329.578L478.992 345.203L471.102 331.141L468.367 339.676C467.938 340.626 467.632 341.434 467.449 342.098C467.267 342.762 467.117 343.276 467 343.641C466.74 344.461 466.31 344.845 465.711 344.793Z" fill="#FF0000"/>
<path d="M162.391 320.223C161.049 320.223 160.001 319.923 159.246 319.324C158.491 318.725 158.113 317.938 158.113 316.961C158.113 316.141 158.53 315.438 159.363 314.852C160.249 314.227 161.186 313.914 162.176 313.914C163.165 313.914 163.927 314.012 164.461 314.207C165.008 314.402 165.47 314.656 165.848 314.969C166.603 315.607 166.98 316.349 166.98 317.195C166.98 318.042 166.551 318.758 165.691 319.344C164.832 319.93 163.732 320.223 162.391 320.223ZM158.289 323.641H166.688V344.5H158.289V323.641ZM187.547 325.77C187.221 325.561 186.87 325.457 186.492 325.457C186.115 325.457 185.724 325.548 185.32 325.73C184.917 325.9 184.493 326.141 184.051 326.453C183.126 327.117 182.273 328.003 181.492 329.109V344.5H173.094V323.641H181.492V326.98C183.719 324.52 186.238 323.289 189.051 323.289C193.647 323.289 195.945 325.516 195.945 329.969V344.5H187.547V325.77ZM220.477 339.754C220.984 339.754 221.238 339.988 221.238 340.457C221.238 340.809 221.01 341.225 220.555 341.707C218.497 343.816 215.678 344.871 212.098 344.871C208.882 344.871 206.173 343.901 203.973 341.961C201.694 339.943 200.555 337.391 200.555 334.305C200.555 331.154 201.583 328.562 203.641 326.531C205.815 324.37 208.706 323.289 212.312 323.289C215.203 323.289 217.632 324.168 219.598 325.926C221.72 327.814 222.781 330.294 222.781 333.367C222.781 333.81 222.768 334.279 222.742 334.773H209.852V343.152C210.737 343.335 211.733 343.426 212.84 343.426C215.184 343.426 217.182 342.651 218.836 341.102C219.174 340.763 219.415 340.496 219.559 340.301C219.858 339.936 220.164 339.754 220.477 339.754ZM215.262 325.086C214.415 324.839 213.458 324.715 212.391 324.715C211.323 324.715 210.477 324.786 209.852 324.93V333.348H215.262V325.086ZM250.359 329.031C250.385 329.344 250.398 329.656 250.398 329.969V344.5H242.02V325.555C241.876 325.49 241.707 325.457 241.512 325.457H240.887C239.871 325.457 238.686 326.154 237.332 327.547C236.915 327.977 236.518 328.452 236.141 328.973V344.5H227.742V323.641H236.141V326.785C238.341 324.454 240.802 323.289 243.523 323.289C247.039 323.289 249.207 324.591 250.027 327.195C251.147 325.906 252.378 324.936 253.719 324.285C255.073 323.621 256.434 323.289 257.801 323.289C260.132 323.289 261.857 323.842 262.977 324.949C264.096 326.056 264.656 327.729 264.656 329.969V344.5H256.277V325.535C256.16 325.483 255.867 325.457 255.398 325.457C254.93 325.457 254.493 325.548 254.09 325.73C253.699 325.9 253.296 326.141 252.879 326.453C251.967 327.117 251.128 327.977 250.359 329.031ZM284.129 343.211C282.462 344.318 280.613 344.871 278.582 344.871C275.887 344.871 273.725 344.194 272.098 342.84C270.405 341.447 269.559 339.513 269.559 337.039C269.559 334.852 270.398 333.055 272.078 331.648C273.797 330.229 276.056 329.52 278.855 329.52C280.73 329.52 282.488 329.878 284.129 330.594V325.223C282.944 324.884 281.896 324.715 280.984 324.715C280.086 324.715 279.324 324.754 278.699 324.832C278.074 324.91 277.482 325.027 276.922 325.184C275.711 325.522 274.793 325.978 274.168 326.551C273.803 326.889 273.471 327.059 273.172 327.059C272.872 327.059 272.645 326.987 272.488 326.844C272.332 326.688 272.254 326.518 272.254 326.336C272.254 326.154 272.286 325.991 272.352 325.848C272.417 325.691 272.54 325.535 272.723 325.379C273.113 325.04 273.764 324.702 274.676 324.363C276.564 323.647 278.458 323.289 280.359 323.289C286.141 323.289 289.832 324.669 291.434 327.43C292.137 328.654 292.488 330.262 292.488 332.254V344.5H284.129V343.211ZM284.129 332.117C282.488 331.323 280.854 330.926 279.227 330.926C278.966 330.926 278.719 330.945 278.484 330.984V343.406C278.549 343.419 278.621 343.426 278.699 343.426C278.777 343.426 278.855 343.426 278.934 343.426C280.717 343.426 282.449 342.794 284.129 341.531V332.117ZM334.383 349.109C335.177 348.862 335.73 348.543 336.043 348.152C336.486 347.632 337.02 346.694 337.645 345.34L338.094 344.305L327.449 323.641H336.336L341.883 335.438L345.086 327.957C345.672 326.59 346.056 325.548 346.238 324.832C346.421 324.116 346.596 323.68 346.766 323.523C346.948 323.367 347.163 323.289 347.41 323.289C347.671 323.289 347.872 323.367 348.016 323.523C348.159 323.68 348.23 323.836 348.23 323.992C348.23 324.148 348.211 324.318 348.172 324.5C348.146 324.669 348.081 324.904 347.977 325.203C347.885 325.49 347.749 325.854 347.566 326.297L339.461 345.086C338.497 347.352 337.573 348.947 336.688 349.871C335.932 350.691 335.164 351.102 334.383 351.102C333.615 351.102 333.23 350.828 333.23 350.281C333.23 349.747 333.615 349.357 334.383 349.109ZM350.125 341.883C350.125 341.688 350.19 341.512 350.32 341.355C350.464 341.186 350.646 341.102 350.867 341.102C351.089 341.102 351.271 341.167 351.414 341.297C351.414 341.297 351.577 341.447 351.902 341.746C353.257 342.931 355.151 343.523 357.586 343.523C359.227 343.523 360.281 343.185 360.75 342.508C360.88 342.326 360.945 342.143 360.945 341.961C360.945 341.766 360.906 341.583 360.828 341.414C360.763 341.232 360.613 341.017 360.379 340.77C360.145 340.509 359.812 340.203 359.383 339.852L357.664 338.465C354.826 336.251 352.879 334.454 351.824 333.074C350.861 331.811 350.379 330.522 350.379 329.207C350.379 327.553 351.141 326.167 352.664 325.047C354.24 323.875 356.277 323.289 358.777 323.289C360.535 323.289 361.922 323.491 362.938 323.895C363.953 324.298 364.669 324.669 365.086 325.008C365.503 325.333 365.711 325.633 365.711 325.906C365.711 326.466 365.49 326.746 365.047 326.746C364.839 326.746 364.643 326.674 364.461 326.531C364.292 326.375 363.947 326.121 363.426 325.77C362.905 325.405 362.215 325.118 361.355 324.91C360.496 324.702 359.695 324.598 358.953 324.598C358.211 324.598 357.684 324.715 357.371 324.949C357.072 325.184 356.922 325.418 356.922 325.652C356.922 325.874 356.967 326.089 357.059 326.297C357.15 326.492 357.319 326.727 357.566 327C358.139 327.677 359.057 328.478 360.32 329.402C361.583 330.327 362.651 331.173 363.523 331.941C364.396 332.71 365.079 333.419 365.574 334.07C366.473 335.242 366.922 336.427 366.922 337.625C366.922 338.823 366.701 339.852 366.258 340.711C365.815 341.557 365.184 342.286 364.363 342.898C362.632 344.214 360.32 344.871 357.43 344.871C355.112 344.871 353.178 344.428 351.629 343.543C350.626 342.983 350.125 342.43 350.125 341.883ZM379.676 344.871C374.572 344.871 372.02 342.54 372.02 337.879L372 325.066L369.754 325.164C369.051 325.164 368.699 324.897 368.699 324.363C368.699 323.829 369.077 323.562 369.832 323.562L371.707 323.641H372V320.613L380.379 316.863V323.641H382.996L384.852 323.562C385.62 323.562 386.004 323.836 386.004 324.383C386.004 324.63 385.893 324.826 385.672 324.969C385.464 325.099 385.223 325.164 384.949 325.164L382.527 325.066H380.379V343.426C381.902 343.4 383.172 342.964 384.188 342.117C384.669 341.753 385.008 341.284 385.203 340.711C385.411 340.138 385.594 339.773 385.75 339.617C385.919 339.448 386.115 339.363 386.336 339.363C386.557 339.363 386.746 339.454 386.902 339.637C387.059 339.806 387.137 340.014 387.137 340.262C387.137 340.496 387.072 340.763 386.941 341.062C386.811 341.349 386.616 341.655 386.355 341.98C385.77 342.71 385.092 343.289 384.324 343.719C382.931 344.487 381.382 344.871 379.676 344.871ZM408.602 339.754C409.109 339.754 409.363 339.988 409.363 340.457C409.363 340.809 409.135 341.225 408.68 341.707C406.622 343.816 403.803 344.871 400.223 344.871C397.007 344.871 394.298 343.901 392.098 341.961C389.819 339.943 388.68 337.391 388.68 334.305C388.68 331.154 389.708 328.562 391.766 326.531C393.94 324.37 396.831 323.289 400.438 323.289C403.328 323.289 405.757 324.168 407.723 325.926C409.845 327.814 410.906 330.294 410.906 333.367C410.906 333.81 410.893 334.279 410.867 334.773H397.977V343.152C398.862 343.335 399.858 343.426 400.965 343.426C403.309 343.426 405.307 342.651 406.961 341.102C407.299 340.763 407.54 340.496 407.684 340.301C407.983 339.936 408.289 339.754 408.602 339.754ZM403.387 325.086C402.54 324.839 401.583 324.715 400.516 324.715C399.448 324.715 398.602 324.786 397.977 324.93V333.348H403.387V325.086ZM438.484 329.031C438.51 329.344 438.523 329.656 438.523 329.969V344.5H430.145V325.555C430.001 325.49 429.832 325.457 429.637 325.457H429.012C427.996 325.457 426.811 326.154 425.457 327.547C425.04 327.977 424.643 328.452 424.266 328.973V344.5H415.867V323.641H424.266V326.785C426.466 324.454 428.927 323.289 431.648 323.289C435.164 323.289 437.332 324.591 438.152 327.195C439.272 325.906 440.503 324.936 441.844 324.285C443.198 323.621 444.559 323.289 445.926 323.289C448.257 323.289 449.982 323.842 451.102 324.949C452.221 326.056 452.781 327.729 452.781 329.969V344.5H444.402V325.535C444.285 325.483 443.992 325.457 443.523 325.457C443.055 325.457 442.618 325.548 442.215 325.73C441.824 325.9 441.421 326.141 441.004 326.453C440.092 327.117 439.253 327.977 438.484 329.031ZM518.738 343.211C517.072 344.318 515.223 344.871 513.191 344.871C510.496 344.871 508.335 344.194 506.707 342.84C505.014 341.447 504.168 339.513 504.168 337.039C504.168 334.852 505.008 333.055 506.688 331.648C508.406 330.229 510.665 329.52 513.465 329.52C515.34 329.52 517.098 329.878 518.738 330.594V325.223C517.553 324.884 516.505 324.715 515.594 324.715C514.695 324.715 513.934 324.754 513.309 324.832C512.684 324.91 512.091 325.027 511.531 325.184C510.32 325.522 509.402 325.978 508.777 326.551C508.413 326.889 508.081 327.059 507.781 327.059C507.482 327.059 507.254 326.987 507.098 326.844C506.941 326.688 506.863 326.518 506.863 326.336C506.863 326.154 506.896 325.991 506.961 325.848C507.026 325.691 507.15 325.535 507.332 325.379C507.723 325.04 508.374 324.702 509.285 324.363C511.173 323.647 513.068 323.289 514.969 323.289C520.75 323.289 524.441 324.669 526.043 327.43C526.746 328.654 527.098 330.262 527.098 332.254V344.5H518.738V343.211ZM518.738 332.117C517.098 331.323 515.464 330.926 513.836 330.926C513.576 330.926 513.328 330.945 513.094 330.984V343.406C513.159 343.419 513.23 343.426 513.309 343.426C513.387 343.426 513.465 343.426 513.543 343.426C515.327 343.426 517.059 342.794 518.738 341.531V332.117ZM547.664 325.77C547.339 325.561 546.987 325.457 546.609 325.457C546.232 325.457 545.841 325.548 545.438 325.73C545.034 325.9 544.611 326.141 544.168 326.453C543.243 327.117 542.391 328.003 541.609 329.109V344.5H533.211V323.641H541.609V326.98C543.836 324.52 546.355 323.289 549.168 323.289C553.764 323.289 556.062 325.516 556.062 329.969V344.5H547.664V325.77ZM575.535 343.211C573.868 344.318 572.02 344.871 569.988 344.871C567.293 344.871 565.132 344.194 563.504 342.84C561.811 341.447 560.965 339.513 560.965 337.039C560.965 334.852 561.805 333.055 563.484 331.648C565.203 330.229 567.462 329.52 570.262 329.52C572.137 329.52 573.895 329.878 575.535 330.594V325.223C574.35 324.884 573.302 324.715 572.391 324.715C571.492 324.715 570.73 324.754 570.105 324.832C569.48 324.91 568.888 325.027 568.328 325.184C567.117 325.522 566.199 325.978 565.574 326.551C565.21 326.889 564.878 327.059 564.578 327.059C564.279 327.059 564.051 326.987 563.895 326.844C563.738 326.688 563.66 326.518 563.66 326.336C563.66 326.154 563.693 325.991 563.758 325.848C563.823 325.691 563.947 325.535 564.129 325.379C564.52 325.04 565.171 324.702 566.082 324.363C567.97 323.647 569.865 323.289 571.766 323.289C577.547 323.289 581.238 324.669 582.84 327.43C583.543 328.654 583.895 330.262 583.895 332.254V344.5H575.535V343.211ZM575.535 332.117C573.895 331.323 572.26 330.926 570.633 330.926C570.372 330.926 570.125 330.945 569.891 330.984V343.406C569.956 343.419 570.027 343.426 570.105 343.426C570.184 343.426 570.262 343.426 570.34 343.426C572.124 343.426 573.855 342.794 575.535 341.531V332.117ZM594.266 338.133C593.107 338.484 592.527 338.868 592.527 339.285C592.527 339.689 592.866 339.969 593.543 340.125C594.858 340.438 596.668 340.626 598.973 340.691C601.277 340.743 603.009 340.919 604.168 341.219C605.34 341.505 606.271 341.87 606.961 342.312C608.211 343.133 608.836 344.22 608.836 345.574C608.836 347.267 607.996 348.641 606.316 349.695C604.454 350.854 601.831 351.434 598.445 351.434C594.943 351.434 592.052 350.913 589.773 349.871C588.953 349.467 588.543 349.012 588.543 348.504C588.543 348.283 588.621 348.107 588.777 347.977C588.947 347.846 589.122 347.781 589.305 347.781C589.526 347.781 589.78 347.866 590.066 348.035C590.73 348.413 591.342 348.725 591.902 348.973C592.475 349.233 593.367 349.48 594.578 349.715C595.789 349.949 596.954 350.066 598.074 350.066C599.207 350.066 600.125 350.014 600.828 349.91C601.544 349.819 602.137 349.708 602.605 349.578C603.53 349.305 603.992 348.999 603.992 348.66C603.992 348.348 603.901 348.12 603.719 347.977C603.536 347.833 603.296 347.703 602.996 347.586C602.71 347.482 602.306 347.384 601.785 347.293C600.717 347.111 599.266 346.974 597.43 346.883C595.594 346.792 594.142 346.609 593.074 346.336C592.007 346.076 591.134 345.737 590.457 345.32C589.142 344.526 588.484 343.452 588.484 342.098C588.484 340.145 589.806 338.562 592.449 337.352C591.238 336.688 590.275 335.815 589.559 334.734C588.842 333.641 588.484 332.462 588.484 331.199C588.484 329.923 588.719 328.823 589.188 327.898C589.669 326.961 590.34 326.154 591.199 325.477C593.009 324.018 595.346 323.289 598.211 323.289C599.487 323.289 600.77 323.484 602.059 323.875C603.908 322.091 605.62 321.199 607.195 321.199C607.859 321.199 608.348 321.31 608.66 321.531C608.986 321.753 609.148 322.033 609.148 322.371C609.148 322.71 609.038 322.957 608.816 323.113C608.595 323.257 608.387 323.328 608.191 323.328C607.84 323.328 607.54 323.289 607.293 323.211C606.928 323.081 606.557 323.016 606.18 323.016C605.477 323.016 604.591 323.504 603.523 324.48C605.646 325.522 607.033 327.02 607.684 328.973C607.892 329.624 607.996 330.424 607.996 331.375C607.996 332.312 607.723 333.25 607.176 334.188C606.629 335.125 605.9 335.932 604.988 336.609C603.087 338.016 600.854 338.719 598.289 338.719C596.935 338.745 595.594 338.549 594.266 338.133ZM598.367 337.293C600.477 337.267 602.293 336.753 603.816 335.75C605.574 334.604 606.453 333.055 606.453 331.102C606.453 329.148 605.587 327.573 603.855 326.375C602.267 325.281 600.438 324.715 598.367 324.676V337.293ZM631.453 339.754C631.961 339.754 632.215 339.988 632.215 340.457C632.215 340.809 631.987 341.225 631.531 341.707C629.474 343.816 626.655 344.871 623.074 344.871C619.858 344.871 617.15 343.901 614.949 341.961C612.671 339.943 611.531 337.391 611.531 334.305C611.531 331.154 612.56 328.562 614.617 326.531C616.792 324.37 619.682 323.289 623.289 323.289C626.18 323.289 628.608 324.168 630.574 325.926C632.697 327.814 633.758 330.294 633.758 333.367C633.758 333.81 633.745 334.279 633.719 334.773H620.828V343.152C621.714 343.335 622.71 343.426 623.816 343.426C626.16 343.426 628.159 342.651 629.812 341.102C630.151 340.763 630.392 340.496 630.535 340.301C630.835 339.936 631.141 339.754 631.453 339.754ZM626.238 325.086C625.392 324.839 624.435 324.715 623.367 324.715C622.299 324.715 621.453 324.786 620.828 324.93V333.348H626.238V325.086ZM661.336 329.031C661.362 329.344 661.375 329.656 661.375 329.969V344.5H652.996V325.555C652.853 325.49 652.684 325.457 652.488 325.457H651.863C650.848 325.457 649.663 326.154 648.309 327.547C647.892 327.977 647.495 328.452 647.117 328.973V344.5H638.719V323.641H647.117V326.785C649.318 324.454 651.779 323.289 654.5 323.289C658.016 323.289 660.184 324.591 661.004 327.195C662.124 325.906 663.354 324.936 664.695 324.285C666.049 323.621 667.41 323.289 668.777 323.289C671.108 323.289 672.833 323.842 673.953 324.949C675.073 326.056 675.633 327.729 675.633 329.969V344.5H667.254V325.535C667.137 325.483 666.844 325.457 666.375 325.457C665.906 325.457 665.47 325.548 665.066 325.73C664.676 325.9 664.272 326.141 663.855 326.453C662.944 327.117 662.104 327.977 661.336 329.031ZM700.164 339.754C700.672 339.754 700.926 339.988 700.926 340.457C700.926 340.809 700.698 341.225 700.242 341.707C698.185 343.816 695.366 344.871 691.785 344.871C688.569 344.871 685.861 343.901 683.66 341.961C681.382 339.943 680.242 337.391 680.242 334.305C680.242 331.154 681.271 328.562 683.328 326.531C685.503 324.37 688.393 323.289 692 323.289C694.891 323.289 697.319 324.168 699.285 325.926C701.408 327.814 702.469 330.294 702.469 333.367C702.469 333.81 702.456 334.279 702.43 334.773H689.539V343.152C690.424 343.335 691.421 343.426 692.527 343.426C694.871 343.426 696.87 342.651 698.523 341.102C698.862 340.763 699.103 340.496 699.246 340.301C699.546 339.936 699.852 339.754 700.164 339.754ZM694.949 325.086C694.103 324.839 693.146 324.715 692.078 324.715C691.01 324.715 690.164 324.786 689.539 324.93V333.348H694.949V325.086ZM721.883 325.77C721.557 325.561 721.206 325.457 720.828 325.457C720.451 325.457 720.06 325.548 719.656 325.73C719.253 325.9 718.829 326.141 718.387 326.453C717.462 327.117 716.609 328.003 715.828 329.109V344.5H707.43V323.641H715.828V326.98C718.055 324.52 720.574 323.289 723.387 323.289C727.983 323.289 730.281 325.516 730.281 329.969V344.5H721.883V325.77ZM744.715 344.871C739.611 344.871 737.059 342.54 737.059 337.879L737.039 325.066L734.793 325.164C734.09 325.164 733.738 324.897 733.738 324.363C733.738 323.829 734.116 323.562 734.871 323.562L736.746 323.641H737.039V320.613L745.418 316.863V323.641H748.035L749.891 323.562C750.659 323.562 751.043 323.836 751.043 324.383C751.043 324.63 750.932 324.826 750.711 324.969C750.503 325.099 750.262 325.164 749.988 325.164L747.566 325.066H745.418V343.426C746.941 343.4 748.211 342.964 749.227 342.117C749.708 341.753 750.047 341.284 750.242 340.711C750.451 340.138 750.633 339.773 750.789 339.617C750.958 339.448 751.154 339.363 751.375 339.363C751.596 339.363 751.785 339.454 751.941 339.637C752.098 339.806 752.176 340.014 752.176 340.262C752.176 340.496 752.111 340.763 751.98 341.062C751.85 341.349 751.655 341.655 751.395 341.98C750.809 342.71 750.132 343.289 749.363 343.719C747.97 344.487 746.421 344.871 744.715 344.871Z" fill="white"/>
<defs>
<filter id="filter0_d_571_1244" x="277.54" y="157.106" width="327.746" height="98.5449" filterUnits="userSpaceOnUse" color-interpolation-filters="sRGB">
<feFlood flood-opacity="0" result="BackgroundImageFix"/>
<feColorMatrix in="SourceAlpha" type="matrix" values="0 0 0 0 0 0 0 0 0 0 0 0 0 0 0 0 0 0 127 0" result="hardAlpha"/>
<feOffset dy="4"/>
<feGaussianBlur stdDeviation="2"/>
<feComposite in2="hardAlpha" operator="out"/>
<feColorMatrix type="matrix" values="0 0 0 0 0 0 0 0 0 0 0 0 0 0 0 0 0 0 0.25 0"/>
<feBlend mode="normal" in2="BackgroundImageFix" result="effect1_dropShadow_571_1244"/>
<feBlend mode="normal" in="SourceGraphic" in2="effect1_dropShadow_571_1244" result="shape"/>
</filter>
<linearGradient id="paint0_linear_571_1244" x1="439.5" y1="134.5" x2="439.5" y2="283.5" gradientUnits="userSpaceOnUse">
<stop stop-color="white"/>
<stop offset="1" stop-color="white"/>
</linearGradient>
</defs>
</svg>
