<svg width="879" height="491" viewBox="0 0 879 491" fill="none" xmlns="http://www.w3.org/2000/svg">
<path d="M355.41 243.336C357.043 243.336 357.86 244.252 357.86 246.085C357.86 247.599 356.705 249.113 354.394 250.627C350.091 253.456 346.465 255.309 343.516 256.185C337.978 257.819 332.161 258.636 326.065 258.636C319.969 258.636 314.092 257.56 308.434 255.408C302.816 253.217 298.015 250.169 294.03 246.264C285.703 238.056 281.539 227.458 281.539 214.469C281.539 208.213 282.715 202.476 285.066 197.256C287.416 191.997 290.664 187.495 294.807 183.749C303.573 175.82 314.59 171.856 327.858 171.856C335.309 171.856 341.863 173.131 347.521 175.681C353.537 178.35 356.545 180.621 356.545 182.494C356.545 183.251 356.286 183.909 355.768 184.466C355.29 185.024 354.732 185.303 354.095 185.303C352.82 185.303 351.664 184.745 350.629 183.63C349.593 182.474 348.178 181.438 346.385 180.522C344.632 179.605 342.7 178.809 340.588 178.131C336.285 176.816 332.36 176.159 328.814 176.159C325.308 176.159 322.399 176.398 320.088 176.876V253.496C322.877 253.974 325.348 254.213 327.499 254.213C329.651 254.213 331.842 254.073 334.073 253.795C336.305 253.516 338.496 253.057 340.648 252.42C345.469 250.986 349.095 248.874 351.525 246.085C352.402 245.049 353.099 244.332 353.617 243.933C354.135 243.535 354.732 243.336 355.41 243.336ZM399.935 253.197C398.541 252.4 397.325 251.563 396.289 250.687C395.293 249.81 394.795 248.874 394.795 247.878C394.795 245.965 395.612 245.009 397.246 245.009C398.321 245.009 399.517 245.607 400.832 246.802C402.146 247.997 403.621 249.053 405.254 249.97C406.888 250.846 408.661 251.603 410.573 252.241C414.518 253.555 418.164 254.213 421.511 254.213C424.857 254.213 427.427 253.994 429.22 253.555C431.053 253.117 432.587 252.52 433.822 251.763C436.452 250.129 437.767 248.037 437.767 245.487C437.767 243.136 436.631 240.766 434.36 238.375C432.448 236.343 429.738 233.913 426.232 231.084L416.012 223.075C405.772 215.186 399.736 207.974 397.903 201.44C397.266 199.169 396.947 196.639 396.947 193.85C396.947 191.061 397.564 188.311 398.8 185.602C400.075 182.893 401.947 180.522 404.418 178.49C409.717 174.067 416.929 171.856 426.053 171.856C430.714 171.856 434.898 172.553 438.604 173.948C442.309 175.302 444.839 176.518 446.194 177.593C447.548 178.669 448.226 179.645 448.226 180.522C448.226 182.355 447.469 183.271 445.955 183.271C445.078 183.271 444.142 182.833 443.146 181.956C442.15 181.08 441.034 180.323 439.799 179.685C438.604 179.008 437.229 178.41 435.675 177.892C432.328 176.777 429.041 176.219 425.814 176.219C419.877 176.219 416.909 178.171 416.909 182.076C416.909 183.709 417.446 185.223 418.522 186.618C420.435 189.048 424.16 192.535 429.698 197.077C435.277 201.579 439.739 205.524 443.086 208.911C446.473 212.297 449.043 215.345 450.796 218.055C453.585 222.318 454.979 226.761 454.979 231.382C454.979 235.964 454.162 239.869 452.529 243.096C450.935 246.284 448.684 249.033 445.775 251.344C439.639 256.205 432.029 258.636 422.945 258.636C413.861 258.636 406.191 256.823 399.935 253.197ZM490.779 258.396C490.022 258.317 489.444 257.978 489.046 257.38C488.647 256.783 488.488 256.125 488.568 255.408C488.767 254.173 489.145 253.038 489.703 252.002C490.261 250.966 490.659 250.189 490.898 249.671C491.177 249.153 491.456 248.575 491.735 247.938L494.006 242.678L518.57 169.107L544.986 220.146L570.626 169.107L601.286 257.5H569.191L554.37 211.839L531.42 259.652L507.274 216.62L498.907 242.738C497.592 245.646 496.656 248.117 496.098 250.149C495.54 252.181 495.082 253.755 494.723 254.87C493.927 257.38 492.612 258.556 490.779 258.396Z" fill="url(#paint0_linear_571_950)"/>
<path d="M152.723 327.871C153.257 327.871 153.523 328.171 153.523 328.77C153.523 329.264 153.146 329.759 152.391 330.254C150.984 331.178 149.799 331.784 148.836 332.07C147.026 332.604 145.125 332.871 143.133 332.871C141.141 332.871 139.22 332.52 137.371 331.816C135.535 331.1 133.966 330.104 132.664 328.828C129.943 326.146 128.582 322.682 128.582 318.438C128.582 316.393 128.966 314.518 129.734 312.812C130.503 311.094 131.564 309.622 132.918 308.398C135.783 305.807 139.383 304.512 143.719 304.512C146.154 304.512 148.296 304.928 150.145 305.762C152.111 306.634 153.094 307.376 153.094 307.988C153.094 308.236 153.009 308.451 152.84 308.633C152.684 308.815 152.501 308.906 152.293 308.906C151.876 308.906 151.499 308.724 151.16 308.359C150.822 307.982 150.359 307.643 149.773 307.344C149.201 307.044 148.569 306.784 147.879 306.562C146.473 306.133 145.19 305.918 144.031 305.918C142.885 305.918 141.935 305.996 141.18 306.152V331.191C142.091 331.348 142.898 331.426 143.602 331.426C144.305 331.426 145.021 331.38 145.75 331.289C146.479 331.198 147.195 331.048 147.898 330.84C149.474 330.371 150.659 329.681 151.453 328.77C151.74 328.431 151.967 328.197 152.137 328.066C152.306 327.936 152.501 327.871 152.723 327.871ZM307.586 331.094C307.13 330.833 306.733 330.56 306.395 330.273C306.069 329.987 305.906 329.681 305.906 329.355C305.906 328.73 306.173 328.418 306.707 328.418C307.059 328.418 307.449 328.613 307.879 329.004C308.309 329.395 308.79 329.74 309.324 330.039C309.858 330.326 310.438 330.573 311.062 330.781C312.352 331.211 313.543 331.426 314.637 331.426C315.73 331.426 316.57 331.354 317.156 331.211C317.755 331.068 318.257 330.872 318.66 330.625C319.52 330.091 319.949 329.408 319.949 328.574C319.949 327.806 319.578 327.031 318.836 326.25C318.211 325.586 317.326 324.792 316.18 323.867L312.84 321.25C309.493 318.672 307.521 316.315 306.922 314.18C306.714 313.438 306.609 312.611 306.609 311.699C306.609 310.788 306.811 309.889 307.215 309.004C307.632 308.118 308.243 307.344 309.051 306.68C310.783 305.234 313.139 304.512 316.121 304.512C317.645 304.512 319.012 304.74 320.223 305.195C321.434 305.638 322.26 306.035 322.703 306.387C323.146 306.738 323.367 307.057 323.367 307.344C323.367 307.943 323.12 308.242 322.625 308.242C322.339 308.242 322.033 308.099 321.707 307.812C321.382 307.526 321.017 307.279 320.613 307.07C320.223 306.849 319.773 306.654 319.266 306.484C318.172 306.12 317.098 305.938 316.043 305.938C314.103 305.938 313.133 306.576 313.133 307.852C313.133 308.385 313.309 308.88 313.66 309.336C314.285 310.13 315.503 311.27 317.312 312.754C319.135 314.225 320.594 315.514 321.688 316.621C322.794 317.728 323.634 318.724 324.207 319.609C325.118 321.003 325.574 322.454 325.574 323.965C325.574 325.462 325.307 326.738 324.773 327.793C324.253 328.835 323.517 329.733 322.566 330.488C320.561 332.077 318.074 332.871 315.105 332.871C312.137 332.871 309.63 332.279 307.586 331.094ZM465.711 332.793C465.464 332.767 465.275 332.656 465.145 332.461C465.014 332.266 464.962 332.051 464.988 331.816C465.053 331.413 465.177 331.042 465.359 330.703C465.542 330.365 465.672 330.111 465.75 329.941C465.841 329.772 465.932 329.583 466.023 329.375L466.766 327.656L474.793 303.613L483.426 320.293L491.805 303.613L501.824 332.5H491.336L486.492 317.578L478.992 333.203L471.102 319.141L468.367 327.676C467.938 328.626 467.632 329.434 467.449 330.098C467.267 330.762 467.117 331.276 467 331.641C466.74 332.461 466.31 332.845 465.711 332.793Z" fill="#FF0000"/>
<path d="M162.391 308.223C161.049 308.223 160.001 307.923 159.246 307.324C158.491 306.725 158.113 305.938 158.113 304.961C158.113 304.141 158.53 303.438 159.363 302.852C160.249 302.227 161.186 301.914 162.176 301.914C163.165 301.914 163.927 302.012 164.461 302.207C165.008 302.402 165.47 302.656 165.848 302.969C166.603 303.607 166.98 304.349 166.98 305.195C166.98 306.042 166.551 306.758 165.691 307.344C164.832 307.93 163.732 308.223 162.391 308.223ZM158.289 311.641H166.688V332.5H158.289V311.641ZM187.547 313.77C187.221 313.561 186.87 313.457 186.492 313.457C186.115 313.457 185.724 313.548 185.32 313.73C184.917 313.9 184.493 314.141 184.051 314.453C183.126 315.117 182.273 316.003 181.492 317.109V332.5H173.094V311.641H181.492V314.98C183.719 312.52 186.238 311.289 189.051 311.289C193.647 311.289 195.945 313.516 195.945 317.969V332.5H187.547V313.77ZM220.477 327.754C220.984 327.754 221.238 327.988 221.238 328.457C221.238 328.809 221.01 329.225 220.555 329.707C218.497 331.816 215.678 332.871 212.098 332.871C208.882 332.871 206.173 331.901 203.973 329.961C201.694 327.943 200.555 325.391 200.555 322.305C200.555 319.154 201.583 316.562 203.641 314.531C205.815 312.37 208.706 311.289 212.312 311.289C215.203 311.289 217.632 312.168 219.598 313.926C221.72 315.814 222.781 318.294 222.781 321.367C222.781 321.81 222.768 322.279 222.742 322.773H209.852V331.152C210.737 331.335 211.733 331.426 212.84 331.426C215.184 331.426 217.182 330.651 218.836 329.102C219.174 328.763 219.415 328.496 219.559 328.301C219.858 327.936 220.164 327.754 220.477 327.754ZM215.262 313.086C214.415 312.839 213.458 312.715 212.391 312.715C211.323 312.715 210.477 312.786 209.852 312.93V321.348H215.262V313.086ZM250.359 317.031C250.385 317.344 250.398 317.656 250.398 317.969V332.5H242.02V313.555C241.876 313.49 241.707 313.457 241.512 313.457H240.887C239.871 313.457 238.686 314.154 237.332 315.547C236.915 315.977 236.518 316.452 236.141 316.973V332.5H227.742V311.641H236.141V314.785C238.341 312.454 240.802 311.289 243.523 311.289C247.039 311.289 249.207 312.591 250.027 315.195C251.147 313.906 252.378 312.936 253.719 312.285C255.073 311.621 256.434 311.289 257.801 311.289C260.132 311.289 261.857 311.842 262.977 312.949C264.096 314.056 264.656 315.729 264.656 317.969V332.5H256.277V313.535C256.16 313.483 255.867 313.457 255.398 313.457C254.93 313.457 254.493 313.548 254.09 313.73C253.699 313.9 253.296 314.141 252.879 314.453C251.967 315.117 251.128 315.977 250.359 317.031ZM284.129 331.211C282.462 332.318 280.613 332.871 278.582 332.871C275.887 332.871 273.725 332.194 272.098 330.84C270.405 329.447 269.559 327.513 269.559 325.039C269.559 322.852 270.398 321.055 272.078 319.648C273.797 318.229 276.056 317.52 278.855 317.52C280.73 317.52 282.488 317.878 284.129 318.594V313.223C282.944 312.884 281.896 312.715 280.984 312.715C280.086 312.715 279.324 312.754 278.699 312.832C278.074 312.91 277.482 313.027 276.922 313.184C275.711 313.522 274.793 313.978 274.168 314.551C273.803 314.889 273.471 315.059 273.172 315.059C272.872 315.059 272.645 314.987 272.488 314.844C272.332 314.688 272.254 314.518 272.254 314.336C272.254 314.154 272.286 313.991 272.352 313.848C272.417 313.691 272.54 313.535 272.723 313.379C273.113 313.04 273.764 312.702 274.676 312.363C276.564 311.647 278.458 311.289 280.359 311.289C286.141 311.289 289.832 312.669 291.434 315.43C292.137 316.654 292.488 318.262 292.488 320.254V332.5H284.129V331.211ZM284.129 320.117C282.488 319.323 280.854 318.926 279.227 318.926C278.966 318.926 278.719 318.945 278.484 318.984V331.406C278.549 331.419 278.621 331.426 278.699 331.426C278.777 331.426 278.855 331.426 278.934 331.426C280.717 331.426 282.449 330.794 284.129 329.531V320.117ZM334.383 337.109C335.177 336.862 335.73 336.543 336.043 336.152C336.486 335.632 337.02 334.694 337.645 333.34L338.094 332.305L327.449 311.641H336.336L341.883 323.438L345.086 315.957C345.672 314.59 346.056 313.548 346.238 312.832C346.421 312.116 346.596 311.68 346.766 311.523C346.948 311.367 347.163 311.289 347.41 311.289C347.671 311.289 347.872 311.367 348.016 311.523C348.159 311.68 348.23 311.836 348.23 311.992C348.23 312.148 348.211 312.318 348.172 312.5C348.146 312.669 348.081 312.904 347.977 313.203C347.885 313.49 347.749 313.854 347.566 314.297L339.461 333.086C338.497 335.352 337.573 336.947 336.688 337.871C335.932 338.691 335.164 339.102 334.383 339.102C333.615 339.102 333.23 338.828 333.23 338.281C333.23 337.747 333.615 337.357 334.383 337.109ZM350.125 329.883C350.125 329.688 350.19 329.512 350.32 329.355C350.464 329.186 350.646 329.102 350.867 329.102C351.089 329.102 351.271 329.167 351.414 329.297C351.414 329.297 351.577 329.447 351.902 329.746C353.257 330.931 355.151 331.523 357.586 331.523C359.227 331.523 360.281 331.185 360.75 330.508C360.88 330.326 360.945 330.143 360.945 329.961C360.945 329.766 360.906 329.583 360.828 329.414C360.763 329.232 360.613 329.017 360.379 328.77C360.145 328.509 359.812 328.203 359.383 327.852L357.664 326.465C354.826 324.251 352.879 322.454 351.824 321.074C350.861 319.811 350.379 318.522 350.379 317.207C350.379 315.553 351.141 314.167 352.664 313.047C354.24 311.875 356.277 311.289 358.777 311.289C360.535 311.289 361.922 311.491 362.938 311.895C363.953 312.298 364.669 312.669 365.086 313.008C365.503 313.333 365.711 313.633 365.711 313.906C365.711 314.466 365.49 314.746 365.047 314.746C364.839 314.746 364.643 314.674 364.461 314.531C364.292 314.375 363.947 314.121 363.426 313.77C362.905 313.405 362.215 313.118 361.355 312.91C360.496 312.702 359.695 312.598 358.953 312.598C358.211 312.598 357.684 312.715 357.371 312.949C357.072 313.184 356.922 313.418 356.922 313.652C356.922 313.874 356.967 314.089 357.059 314.297C357.15 314.492 357.319 314.727 357.566 315C358.139 315.677 359.057 316.478 360.32 317.402C361.583 318.327 362.651 319.173 363.523 319.941C364.396 320.71 365.079 321.419 365.574 322.07C366.473 323.242 366.922 324.427 366.922 325.625C366.922 326.823 366.701 327.852 366.258 328.711C365.815 329.557 365.184 330.286 364.363 330.898C362.632 332.214 360.32 332.871 357.43 332.871C355.112 332.871 353.178 332.428 351.629 331.543C350.626 330.983 350.125 330.43 350.125 329.883ZM379.676 332.871C374.572 332.871 372.02 330.54 372.02 325.879L372 313.066L369.754 313.164C369.051 313.164 368.699 312.897 368.699 312.363C368.699 311.829 369.077 311.562 369.832 311.562L371.707 311.641H372V308.613L380.379 304.863V311.641H382.996L384.852 311.562C385.62 311.562 386.004 311.836 386.004 312.383C386.004 312.63 385.893 312.826 385.672 312.969C385.464 313.099 385.223 313.164 384.949 313.164L382.527 313.066H380.379V331.426C381.902 331.4 383.172 330.964 384.188 330.117C384.669 329.753 385.008 329.284 385.203 328.711C385.411 328.138 385.594 327.773 385.75 327.617C385.919 327.448 386.115 327.363 386.336 327.363C386.557 327.363 386.746 327.454 386.902 327.637C387.059 327.806 387.137 328.014 387.137 328.262C387.137 328.496 387.072 328.763 386.941 329.062C386.811 329.349 386.616 329.655 386.355 329.98C385.77 330.71 385.092 331.289 384.324 331.719C382.931 332.487 381.382 332.871 379.676 332.871ZM408.602 327.754C409.109 327.754 409.363 327.988 409.363 328.457C409.363 328.809 409.135 329.225 408.68 329.707C406.622 331.816 403.803 332.871 400.223 332.871C397.007 332.871 394.298 331.901 392.098 329.961C389.819 327.943 388.68 325.391 388.68 322.305C388.68 319.154 389.708 316.562 391.766 314.531C393.94 312.37 396.831 311.289 400.438 311.289C403.328 311.289 405.757 312.168 407.723 313.926C409.845 315.814 410.906 318.294 410.906 321.367C410.906 321.81 410.893 322.279 410.867 322.773H397.977V331.152C398.862 331.335 399.858 331.426 400.965 331.426C403.309 331.426 405.307 330.651 406.961 329.102C407.299 328.763 407.54 328.496 407.684 328.301C407.983 327.936 408.289 327.754 408.602 327.754ZM403.387 313.086C402.54 312.839 401.583 312.715 400.516 312.715C399.448 312.715 398.602 312.786 397.977 312.93V321.348H403.387V313.086ZM438.484 317.031C438.51 317.344 438.523 317.656 438.523 317.969V332.5H430.145V313.555C430.001 313.49 429.832 313.457 429.637 313.457H429.012C427.996 313.457 426.811 314.154 425.457 315.547C425.04 315.977 424.643 316.452 424.266 316.973V332.5H415.867V311.641H424.266V314.785C426.466 312.454 428.927 311.289 431.648 311.289C435.164 311.289 437.332 312.591 438.152 315.195C439.272 313.906 440.503 312.936 441.844 312.285C443.198 311.621 444.559 311.289 445.926 311.289C448.257 311.289 449.982 311.842 451.102 312.949C452.221 314.056 452.781 315.729 452.781 317.969V332.5H444.402V313.535C444.285 313.483 443.992 313.457 443.523 313.457C443.055 313.457 442.618 313.548 442.215 313.73C441.824 313.9 441.421 314.141 441.004 314.453C440.092 315.117 439.253 315.977 438.484 317.031ZM518.738 331.211C517.072 332.318 515.223 332.871 513.191 332.871C510.496 332.871 508.335 332.194 506.707 330.84C505.014 329.447 504.168 327.513 504.168 325.039C504.168 322.852 505.008 321.055 506.688 319.648C508.406 318.229 510.665 317.52 513.465 317.52C515.34 317.52 517.098 317.878 518.738 318.594V313.223C517.553 312.884 516.505 312.715 515.594 312.715C514.695 312.715 513.934 312.754 513.309 312.832C512.684 312.91 512.091 313.027 511.531 313.184C510.32 313.522 509.402 313.978 508.777 314.551C508.413 314.889 508.081 315.059 507.781 315.059C507.482 315.059 507.254 314.987 507.098 314.844C506.941 314.688 506.863 314.518 506.863 314.336C506.863 314.154 506.896 313.991 506.961 313.848C507.026 313.691 507.15 313.535 507.332 313.379C507.723 313.04 508.374 312.702 509.285 312.363C511.173 311.647 513.068 311.289 514.969 311.289C520.75 311.289 524.441 312.669 526.043 315.43C526.746 316.654 527.098 318.262 527.098 320.254V332.5H518.738V331.211ZM518.738 320.117C517.098 319.323 515.464 318.926 513.836 318.926C513.576 318.926 513.328 318.945 513.094 318.984V331.406C513.159 331.419 513.23 331.426 513.309 331.426C513.387 331.426 513.465 331.426 513.543 331.426C515.327 331.426 517.059 330.794 518.738 329.531V320.117ZM547.664 313.77C547.339 313.561 546.987 313.457 546.609 313.457C546.232 313.457 545.841 313.548 545.438 313.73C545.034 313.9 544.611 314.141 544.168 314.453C543.243 315.117 542.391 316.003 541.609 317.109V332.5H533.211V311.641H541.609V314.98C543.836 312.52 546.355 311.289 549.168 311.289C553.764 311.289 556.062 313.516 556.062 317.969V332.5H547.664V313.77ZM575.535 331.211C573.868 332.318 572.02 332.871 569.988 332.871C567.293 332.871 565.132 332.194 563.504 330.84C561.811 329.447 560.965 327.513 560.965 325.039C560.965 322.852 561.805 321.055 563.484 319.648C565.203 318.229 567.462 317.52 570.262 317.52C572.137 317.52 573.895 317.878 575.535 318.594V313.223C574.35 312.884 573.302 312.715 572.391 312.715C571.492 312.715 570.73 312.754 570.105 312.832C569.48 312.91 568.888 313.027 568.328 313.184C567.117 313.522 566.199 313.978 565.574 314.551C565.21 314.889 564.878 315.059 564.578 315.059C564.279 315.059 564.051 314.987 563.895 314.844C563.738 314.688 563.66 314.518 563.66 314.336C563.66 314.154 563.693 313.991 563.758 313.848C563.823 313.691 563.947 313.535 564.129 313.379C564.52 313.04 565.171 312.702 566.082 312.363C567.97 311.647 569.865 311.289 571.766 311.289C577.547 311.289 581.238 312.669 582.84 315.43C583.543 316.654 583.895 318.262 583.895 320.254V332.5H575.535V331.211ZM575.535 320.117C573.895 319.323 572.26 318.926 570.633 318.926C570.372 318.926 570.125 318.945 569.891 318.984V331.406C569.956 331.419 570.027 331.426 570.105 331.426C570.184 331.426 570.262 331.426 570.34 331.426C572.124 331.426 573.855 330.794 575.535 329.531V320.117ZM594.266 326.133C593.107 326.484 592.527 326.868 592.527 327.285C592.527 327.689 592.866 327.969 593.543 328.125C594.858 328.438 596.668 328.626 598.973 328.691C601.277 328.743 603.009 328.919 604.168 329.219C605.34 329.505 606.271 329.87 606.961 330.312C608.211 331.133 608.836 332.22 608.836 333.574C608.836 335.267 607.996 336.641 606.316 337.695C604.454 338.854 601.831 339.434 598.445 339.434C594.943 339.434 592.052 338.913 589.773 337.871C588.953 337.467 588.543 337.012 588.543 336.504C588.543 336.283 588.621 336.107 588.777 335.977C588.947 335.846 589.122 335.781 589.305 335.781C589.526 335.781 589.78 335.866 590.066 336.035C590.73 336.413 591.342 336.725 591.902 336.973C592.475 337.233 593.367 337.48 594.578 337.715C595.789 337.949 596.954 338.066 598.074 338.066C599.207 338.066 600.125 338.014 600.828 337.91C601.544 337.819 602.137 337.708 602.605 337.578C603.53 337.305 603.992 336.999 603.992 336.66C603.992 336.348 603.901 336.12 603.719 335.977C603.536 335.833 603.296 335.703 602.996 335.586C602.71 335.482 602.306 335.384 601.785 335.293C600.717 335.111 599.266 334.974 597.43 334.883C595.594 334.792 594.142 334.609 593.074 334.336C592.007 334.076 591.134 333.737 590.457 333.32C589.142 332.526 588.484 331.452 588.484 330.098C588.484 328.145 589.806 326.562 592.449 325.352C591.238 324.688 590.275 323.815 589.559 322.734C588.842 321.641 588.484 320.462 588.484 319.199C588.484 317.923 588.719 316.823 589.188 315.898C589.669 314.961 590.34 314.154 591.199 313.477C593.009 312.018 595.346 311.289 598.211 311.289C599.487 311.289 600.77 311.484 602.059 311.875C603.908 310.091 605.62 309.199 607.195 309.199C607.859 309.199 608.348 309.31 608.66 309.531C608.986 309.753 609.148 310.033 609.148 310.371C609.148 310.71 609.038 310.957 608.816 311.113C608.595 311.257 608.387 311.328 608.191 311.328C607.84 311.328 607.54 311.289 607.293 311.211C606.928 311.081 606.557 311.016 606.18 311.016C605.477 311.016 604.591 311.504 603.523 312.48C605.646 313.522 607.033 315.02 607.684 316.973C607.892 317.624 607.996 318.424 607.996 319.375C607.996 320.312 607.723 321.25 607.176 322.188C606.629 323.125 605.9 323.932 604.988 324.609C603.087 326.016 600.854 326.719 598.289 326.719C596.935 326.745 595.594 326.549 594.266 326.133ZM598.367 325.293C600.477 325.267 602.293 324.753 603.816 323.75C605.574 322.604 606.453 321.055 606.453 319.102C606.453 317.148 605.587 315.573 603.855 314.375C602.267 313.281 600.438 312.715 598.367 312.676V325.293ZM631.453 327.754C631.961 327.754 632.215 327.988 632.215 328.457C632.215 328.809 631.987 329.225 631.531 329.707C629.474 331.816 626.655 332.871 623.074 332.871C619.858 332.871 617.15 331.901 614.949 329.961C612.671 327.943 611.531 325.391 611.531 322.305C611.531 319.154 612.56 316.562 614.617 314.531C616.792 312.37 619.682 311.289 623.289 311.289C626.18 311.289 628.608 312.168 630.574 313.926C632.697 315.814 633.758 318.294 633.758 321.367C633.758 321.81 633.745 322.279 633.719 322.773H620.828V331.152C621.714 331.335 622.71 331.426 623.816 331.426C626.16 331.426 628.159 330.651 629.812 329.102C630.151 328.763 630.392 328.496 630.535 328.301C630.835 327.936 631.141 327.754 631.453 327.754ZM626.238 313.086C625.392 312.839 624.435 312.715 623.367 312.715C622.299 312.715 621.453 312.786 620.828 312.93V321.348H626.238V313.086ZM661.336 317.031C661.362 317.344 661.375 317.656 661.375 317.969V332.5H652.996V313.555C652.853 313.49 652.684 313.457 652.488 313.457H651.863C650.848 313.457 649.663 314.154 648.309 315.547C647.892 315.977 647.495 316.452 647.117 316.973V332.5H638.719V311.641H647.117V314.785C649.318 312.454 651.779 311.289 654.5 311.289C658.016 311.289 660.184 312.591 661.004 315.195C662.124 313.906 663.354 312.936 664.695 312.285C666.049 311.621 667.41 311.289 668.777 311.289C671.108 311.289 672.833 311.842 673.953 312.949C675.073 314.056 675.633 315.729 675.633 317.969V332.5H667.254V313.535C667.137 313.483 666.844 313.457 666.375 313.457C665.906 313.457 665.47 313.548 665.066 313.73C664.676 313.9 664.272 314.141 663.855 314.453C662.944 315.117 662.104 315.977 661.336 317.031ZM700.164 327.754C700.672 327.754 700.926 327.988 700.926 328.457C700.926 328.809 700.698 329.225 700.242 329.707C698.185 331.816 695.366 332.871 691.785 332.871C688.569 332.871 685.861 331.901 683.66 329.961C681.382 327.943 680.242 325.391 680.242 322.305C680.242 319.154 681.271 316.562 683.328 314.531C685.503 312.37 688.393 311.289 692 311.289C694.891 311.289 697.319 312.168 699.285 313.926C701.408 315.814 702.469 318.294 702.469 321.367C702.469 321.81 702.456 322.279 702.43 322.773H689.539V331.152C690.424 331.335 691.421 331.426 692.527 331.426C694.871 331.426 696.87 330.651 698.523 329.102C698.862 328.763 699.103 328.496 699.246 328.301C699.546 327.936 699.852 327.754 700.164 327.754ZM694.949 313.086C694.103 312.839 693.146 312.715 692.078 312.715C691.01 312.715 690.164 312.786 689.539 312.93V321.348H694.949V313.086ZM721.883 313.77C721.557 313.561 721.206 313.457 720.828 313.457C720.451 313.457 720.06 313.548 719.656 313.73C719.253 313.9 718.829 314.141 718.387 314.453C717.462 315.117 716.609 316.003 715.828 317.109V332.5H707.43V311.641H715.828V314.98C718.055 312.52 720.574 311.289 723.387 311.289C727.983 311.289 730.281 313.516 730.281 317.969V332.5H721.883V313.77ZM744.715 332.871C739.611 332.871 737.059 330.54 737.059 325.879L737.039 313.066L734.793 313.164C734.09 313.164 733.738 312.897 733.738 312.363C733.738 311.829 734.116 311.562 734.871 311.562L736.746 311.641H737.039V308.613L745.418 304.863V311.641H748.035L749.891 311.562C750.659 311.562 751.043 311.836 751.043 312.383C751.043 312.63 750.932 312.826 750.711 312.969C750.503 313.099 750.262 313.164 749.988 313.164L747.566 313.066H745.418V331.426C746.941 331.4 748.211 330.964 749.227 330.117C749.708 329.753 750.047 329.284 750.242 328.711C750.451 328.138 750.633 327.773 750.789 327.617C750.958 327.448 751.154 327.363 751.375 327.363C751.596 327.363 751.785 327.454 751.941 327.637C752.098 327.806 752.176 328.014 752.176 328.262C752.176 328.496 752.111 328.763 751.98 329.062C751.85 329.349 751.655 329.655 751.395 329.98C750.809 330.71 750.132 331.289 749.363 331.719C747.97 332.487 746.421 332.871 744.715 332.871Z" fill="black"/>
<defs>
<linearGradient id="paint0_linear_571_950" x1="439.5" y1="146.5" x2="439.5" y2="295.5" gradientUnits="userSpaceOnUse">
<stop stop-color="#FF0000"/>
<stop offset="1" stop-color="#990000"/>
</linearGradient>
</defs>
</svg>
