<svg width="166" height="58" viewBox="0 0 166 58" fill="none" xmlns="http://www.w3.org/2000/svg">
<path d="M25.8988 44.2807C26.9547 44.2807 27.4826 44.7289 27.4826 45.6254C27.4826 45.984 27.2635 46.3027 26.8252 46.5816C26.4068 46.8605 25.6498 47 24.5541 47H0.289258V4.71582H15.5295V45.0277H21.1176C22.3727 45.0277 23.4484 44.9082 24.3449 44.6691C25.2613 44.4102 25.7793 44.2807 25.8988 44.2807ZM30.3514 30.8633C30.3514 28.4727 30.7797 26.3012 31.6363 24.3488C32.5129 22.3766 33.7082 20.6633 35.2223 19.209C38.4895 16.1012 42.5934 14.5473 47.534 14.5473C52.5742 14.5473 56.6781 16.1609 59.8457 19.3883C62.8738 22.4363 64.3879 26.2912 64.3879 30.9529C64.3879 35.6346 62.834 39.5492 59.7262 42.6969C56.5187 45.9441 52.4148 47.5678 47.4145 47.5678C42.5336 47.5678 38.4895 46.0238 35.282 42.9359C31.9949 39.7484 30.3514 35.7242 30.3514 30.8633ZM46.5777 45.3266C46.7371 45.3465 46.8965 45.3564 47.0559 45.3564H47.4742C51.4984 45.3564 54.8752 44.1113 57.6045 41.6211C60.5131 38.9316 61.9674 35.4055 61.9674 31.0426C61.9674 26.7793 60.6027 23.3229 57.8734 20.6732C55.184 18.0436 51.7076 16.7287 47.4443 16.7287H46.9961C46.8566 16.7287 46.7172 16.7387 46.5777 16.7586V45.3266ZM78.5822 37.2582C76.8092 37.7961 75.9226 38.3838 75.9226 39.0213C75.9226 39.6389 76.4406 40.0672 77.4766 40.3063C79.4887 40.7844 82.2578 41.0732 85.784 41.1729C89.3101 41.2525 91.9598 41.5215 93.7328 41.9797C95.5258 42.418 96.9502 42.9758 98.006 43.6531C99.9185 44.9082 100.875 46.5717 100.875 48.6436C100.875 51.2334 99.5898 53.3352 97.0199 54.9488C94.1711 56.7219 90.1568 57.6084 84.9771 57.6084C79.6182 57.6084 75.1955 56.8115 71.7092 55.2178C70.4541 54.6002 69.8266 53.9029 69.8266 53.126C69.8266 52.7873 69.9461 52.5184 70.1851 52.3191C70.4441 52.1199 70.7131 52.0203 70.992 52.0203C71.3307 52.0203 71.7191 52.1498 72.1574 52.4088C73.1734 52.9865 74.1098 53.4646 74.9664 53.8432C75.843 54.2416 77.2076 54.6201 79.0603 54.9787C80.9131 55.3373 82.6961 55.5166 84.4094 55.5166C86.1426 55.5166 87.5471 55.4369 88.6228 55.2775C89.7185 55.1381 90.625 54.9687 91.3422 54.7695C92.7566 54.3512 93.4639 53.883 93.4639 53.365C93.4639 52.8869 93.3244 52.5383 93.0455 52.3191C92.7666 52.1 92.398 51.9008 91.9398 51.7215C91.5016 51.5621 90.884 51.4127 90.0871 51.2732C88.4535 50.9943 86.2322 50.7852 83.4232 50.6457C80.6143 50.5062 78.393 50.2273 76.7594 49.809C75.1258 49.4105 73.791 48.8926 72.7551 48.2551C70.743 47.0398 69.7369 45.3963 69.7369 43.3244C69.7369 40.3361 71.759 37.9156 75.8031 36.0629C73.9504 35.0469 72.4762 33.7121 71.3805 32.0586C70.2848 30.3852 69.7369 28.5822 69.7369 26.6498C69.7369 24.6975 70.0955 23.0141 70.8127 21.5996C71.5498 20.1652 72.5758 18.9301 73.8906 17.8941C76.6598 15.6629 80.2357 14.5473 84.6185 14.5473C86.5709 14.5473 88.5332 14.8461 90.5055 15.4438C93.3344 12.7145 95.9541 11.3498 98.3646 11.3498C99.3807 11.3498 100.128 11.5191 100.606 11.8578C101.104 12.1965 101.353 12.6248 101.353 13.1428C101.353 13.6607 101.184 14.0393 100.845 14.2783C100.506 14.4975 100.187 14.607 99.8887 14.607C99.3508 14.607 98.8926 14.5473 98.5141 14.4277C97.9562 14.2285 97.3885 14.1289 96.8107 14.1289C95.735 14.1289 94.3803 14.876 92.7467 16.3701C95.9939 17.9639 98.1156 20.2549 99.1117 23.2432C99.4305 24.2393 99.5898 25.4645 99.5898 26.9188C99.5898 28.3531 99.1715 29.7875 98.3348 31.2219C97.498 32.6563 96.3824 33.8914 94.9879 34.9273C92.0793 37.0789 88.6627 38.1547 84.7381 38.1547C82.6662 38.1945 80.6143 37.8957 78.5822 37.2582ZM84.8576 35.9732C88.085 35.9334 90.8641 35.1465 93.1949 33.6125C95.8844 31.8594 97.2291 29.4887 97.2291 26.5004C97.2291 23.5121 95.9043 21.1016 93.2547 19.2688C90.8242 17.5953 88.0252 16.7287 84.8576 16.6689V35.9732ZM114.023 9.85567C111.971 9.85567 110.368 9.39746 109.212 8.48106C108.057 7.56465 107.479 6.35938 107.479 4.86524C107.479 3.61016 108.116 2.53438 109.391 1.63789C110.746 0.681643 112.18 0.203518 113.695 0.203518C115.209 0.203518 116.374 0.352932 117.191 0.65176C118.028 0.950588 118.735 1.33906 119.312 1.81719C120.468 2.79336 121.046 3.92891 121.046 5.22383C121.046 6.51875 120.388 7.61446 119.073 8.51094C117.759 9.40742 116.075 9.85567 114.023 9.85567ZM107.748 15.0852H120.597V47H107.748V15.0852ZM152.512 18.3424C152.014 18.0236 151.476 17.8643 150.899 17.8643C150.321 17.8643 149.723 18.0037 149.106 18.2826C148.488 18.5416 147.841 18.9102 147.163 19.3883C145.749 20.4043 144.444 21.759 143.249 23.4523V47H130.399V15.0852H143.249V20.1951C146.655 16.4299 150.51 14.5473 154.813 14.5473C161.846 14.5473 165.362 17.9539 165.362 24.7672V47H152.512V18.3424Z" fill="#15A566"/>
</svg>
