<svg width="166" height="59" viewBox="0 0 166 59" fill="none" xmlns="http://www.w3.org/2000/svg">
<path d="M26.3988 44.7807C27.4547 44.7807 27.9826 45.2289 27.9826 46.1254C27.9826 46.484 27.7635 46.8027 27.3252 47.0816C26.9068 47.3605 26.1498 47.5 25.0541 47.5H0.789258V5.21582H16.0295V45.5277H21.6176C22.8727 45.5277 23.9484 45.4082 24.8449 45.1691C25.7613 44.9102 26.2793 44.7807 26.3988 44.7807ZM30.8514 31.3633C30.8514 28.9727 31.2797 26.8012 32.1363 24.8488C33.0129 22.8766 34.2082 21.1633 35.7223 19.709C38.9895 16.6012 43.0934 15.0473 48.034 15.0473C53.0742 15.0473 57.1781 16.6609 60.3457 19.8883C63.3738 22.9363 64.8879 26.7912 64.8879 31.4529C64.8879 36.1346 63.334 40.0492 60.2262 43.1969C57.0187 46.4441 52.9148 48.0678 47.9145 48.0678C43.0336 48.0678 38.9895 46.5238 35.782 43.4359C32.4949 40.2484 30.8514 36.2242 30.8514 31.3633ZM47.0777 45.8266C47.2371 45.8465 47.3965 45.8564 47.5559 45.8564H47.9742C51.9984 45.8564 55.3752 44.6113 58.1045 42.1211C61.0131 39.4316 62.4674 35.9055 62.4674 31.5426C62.4674 27.2793 61.1027 23.8229 58.3734 21.1732C55.684 18.5436 52.2076 17.2287 47.9443 17.2287H47.4961C47.3566 17.2287 47.2172 17.2387 47.0777 17.2586V45.8266ZM79.0822 37.7582C77.3092 38.2961 76.4226 38.8838 76.4226 39.5213C76.4226 40.1389 76.9406 40.5672 77.9766 40.8063C79.9887 41.2844 82.7578 41.5732 86.284 41.6729C89.8101 41.7525 92.4598 42.0215 94.2328 42.4797C96.0258 42.918 97.4502 43.4758 98.506 44.1531C100.419 45.4082 101.375 47.0717 101.375 49.1436C101.375 51.7334 100.09 53.8352 97.5199 55.4488C94.6711 57.2219 90.6568 58.1084 85.4771 58.1084C80.1182 58.1084 75.6955 57.3115 72.2092 55.7178C70.9541 55.1002 70.3266 54.4029 70.3266 53.626C70.3266 53.2873 70.4461 53.0184 70.6851 52.8191C70.9441 52.6199 71.2131 52.5203 71.492 52.5203C71.8307 52.5203 72.2191 52.6498 72.6574 52.9088C73.6734 53.4865 74.6098 53.9646 75.4664 54.3432C76.343 54.7416 77.7076 55.1201 79.5603 55.4787C81.4131 55.8373 83.1961 56.0166 84.9094 56.0166C86.6426 56.0166 88.0471 55.9369 89.1228 55.7775C90.2185 55.6381 91.125 55.4687 91.8422 55.2695C93.2566 54.8512 93.9639 54.383 93.9639 53.865C93.9639 53.3869 93.8244 53.0383 93.5455 52.8191C93.2666 52.6 92.898 52.4008 92.4398 52.2215C92.0016 52.0621 91.384 51.9127 90.5871 51.7732C88.9535 51.4943 86.7322 51.2852 83.9232 51.1457C81.1143 51.0062 78.893 50.7273 77.2594 50.309C75.6258 49.9105 74.291 49.3926 73.2551 48.7551C71.243 47.5398 70.2369 45.8963 70.2369 43.8244C70.2369 40.8361 72.259 38.4156 76.3031 36.5629C74.4504 35.5469 72.9762 34.2121 71.8805 32.5586C70.7848 30.8852 70.2369 29.0822 70.2369 27.1498C70.2369 25.1975 70.5955 23.5141 71.3127 22.0996C72.0498 20.6652 73.0758 19.4301 74.3906 18.3941C77.1598 16.1629 80.7357 15.0473 85.1185 15.0473C87.0709 15.0473 89.0332 15.3461 91.0055 15.9438C93.8344 13.2145 96.4541 11.8498 98.8646 11.8498C99.8807 11.8498 100.628 12.0191 101.106 12.3578C101.604 12.6965 101.853 13.1248 101.853 13.6428C101.853 14.1607 101.684 14.5393 101.345 14.7783C101.006 14.9975 100.687 15.107 100.389 15.107C99.8508 15.107 99.3926 15.0473 99.0141 14.9277C98.4562 14.7285 97.8885 14.6289 97.3107 14.6289C96.235 14.6289 94.8803 15.376 93.2467 16.8701C96.4939 18.4639 98.6156 20.7549 99.6117 23.7432C99.9305 24.7393 100.09 25.9645 100.09 27.4188C100.09 28.8531 99.6715 30.2875 98.8348 31.7219C97.998 33.1563 96.8824 34.3914 95.4879 35.4273C92.5793 37.5789 89.1627 38.6547 85.2381 38.6547C83.1662 38.6945 81.1143 38.3957 79.0822 37.7582ZM85.3576 36.4732C88.585 36.4334 91.3641 35.6465 93.6949 34.1125C96.3844 32.3594 97.7291 29.9887 97.7291 27.0004C97.7291 24.0121 96.4043 21.6016 93.7547 19.7688C91.3242 18.0953 88.5252 17.2287 85.3576 17.1689V36.4732ZM114.523 10.3557C112.471 10.3557 110.868 9.89746 109.712 8.98106C108.557 8.06465 107.979 6.85938 107.979 5.36524C107.979 4.11016 108.616 3.03438 109.891 2.13789C111.246 1.18164 112.68 0.703518 114.195 0.703518C115.709 0.703518 116.874 0.852932 117.691 1.15176C118.528 1.45059 119.235 1.83906 119.812 2.31719C120.968 3.29336 121.546 4.42891 121.546 5.72383C121.546 7.01875 120.888 8.11446 119.573 9.01094C118.259 9.90742 116.575 10.3557 114.523 10.3557ZM108.248 15.5852H121.097V47.5H108.248V15.5852ZM153.012 18.8424C152.514 18.5236 151.976 18.3643 151.399 18.3643C150.821 18.3643 150.223 18.5037 149.606 18.7826C148.988 19.0416 148.341 19.4102 147.663 19.8883C146.249 20.9043 144.944 22.259 143.749 23.9523V47.5H130.899V15.5852H143.749V20.6951C147.155 16.9299 151.01 15.0473 155.313 15.0473C162.346 15.0473 165.862 18.4539 165.862 25.2672V47.5H153.012V18.8424Z" fill="#2CEC99"/>
</svg>
