<svg width="240" height="58" viewBox="0 0 240 58" fill="none" xmlns="http://www.w3.org/2000/svg">
<path d="M3.28926 44.8484C2.59199 44.45 1.98437 44.0316 1.46641 43.5934C0.968359 43.1551 0.719336 42.6869 0.719336 42.1889C0.719336 41.2326 1.12773 40.7545 1.94453 40.7545C2.48242 40.7545 3.08008 41.0533 3.7375 41.651C4.39492 42.2486 5.13203 42.7766 5.94883 43.2348C6.76562 43.673 7.65215 44.0516 8.6084 44.3703C10.5807 45.0277 12.4035 45.3564 14.077 45.3564C15.7504 45.3564 17.0354 45.2469 17.9318 45.0277C18.8482 44.8086 19.6152 44.5098 20.2328 44.1313C21.5477 43.3145 22.2051 42.2686 22.2051 40.9936C22.2051 39.8182 21.6373 38.6328 20.5018 37.4375C19.5455 36.4215 18.1908 35.2063 16.4377 33.7918L11.3277 29.7875C6.20781 25.843 3.18965 22.2371 2.27324 18.9699C1.95449 17.8344 1.79512 16.5693 1.79512 15.1748C1.79512 13.7803 2.10391 12.4057 2.72148 11.051C3.35898 9.69629 4.29531 8.51094 5.53047 7.49492C8.18008 5.2836 11.7859 4.17793 16.348 4.17793C18.6789 4.17793 20.7707 4.52656 22.6234 5.22383C24.4762 5.90117 25.7412 6.50879 26.4186 7.04668C27.0959 7.58457 27.4346 8.07266 27.4346 8.51094C27.4346 9.42735 27.0561 9.88555 26.299 9.88555C25.8607 9.88555 25.3926 9.66641 24.8945 9.22813C24.3965 8.78985 23.8387 8.41133 23.2211 8.09258C22.6234 7.75391 21.9361 7.45508 21.1592 7.1961C19.4857 6.63828 17.8422 6.35938 16.2285 6.35938C13.2602 6.35938 11.776 7.33555 11.776 9.28789C11.776 10.1047 12.0449 10.8617 12.5828 11.559C13.5391 12.7742 15.4018 14.5174 18.1709 16.7885C20.96 19.0396 23.1912 21.0119 24.8646 22.7053C26.558 24.3986 27.843 25.9227 28.7195 27.2773C30.1141 29.409 30.8113 31.6303 30.8113 33.9412C30.8113 36.2322 30.4029 38.1846 29.5861 39.7982C28.7893 41.392 27.6637 42.7666 26.2094 43.9221C23.1414 46.3525 19.3363 47.5678 14.7941 47.5678C10.252 47.5678 6.41699 46.6613 3.28926 44.8484ZM45.0057 9.85567C42.9537 9.85567 41.35 9.39746 40.1945 8.48106C39.0391 7.56465 38.4613 6.35938 38.4613 4.86524C38.4613 3.61016 39.0988 2.53438 40.3738 1.63789C41.7285 0.681643 43.1629 0.203518 44.677 0.203518C46.191 0.203518 47.3564 0.352932 48.1732 0.65176C49.01 0.950588 49.7172 1.33906 50.2949 1.81719C51.4504 2.79336 52.0281 3.92891 52.0281 5.22383C52.0281 6.51875 51.3707 7.61446 50.0559 8.51094C48.741 9.40742 47.0576 9.85567 45.0057 9.85567ZM38.7303 15.0852H51.5799V47H38.7303V15.0852ZM67.8959 37.2582C66.1228 37.7961 65.2363 38.3838 65.2363 39.0213C65.2363 39.6389 65.7543 40.0672 66.7902 40.3063C68.8023 40.7844 71.5715 41.0732 75.0977 41.1729C78.6238 41.2525 81.2734 41.5215 83.0465 41.9797C84.8394 42.418 86.2639 42.9758 87.3197 43.6531C89.2322 44.9082 90.1885 46.5717 90.1885 48.6436C90.1885 51.2334 88.9035 53.3352 86.3336 54.9488C83.4848 56.7219 79.4705 57.6084 74.2908 57.6084C68.9318 57.6084 64.5092 56.8115 61.0228 55.2178C59.7678 54.6002 59.1402 53.9029 59.1402 53.126C59.1402 52.7873 59.2598 52.5184 59.4988 52.3191C59.7578 52.1199 60.0268 52.0203 60.3057 52.0203C60.6443 52.0203 61.0328 52.1498 61.4711 52.4088C62.4871 52.9865 63.4234 53.4646 64.2801 53.8432C65.1566 54.2416 66.5213 54.6201 68.374 54.9787C70.2268 55.3373 72.0098 55.5166 73.723 55.5166C75.4562 55.5166 76.8607 55.4369 77.9365 55.2775C79.0322 55.1381 79.9387 54.9687 80.6559 54.7695C82.0703 54.3512 82.7775 53.883 82.7775 53.365C82.7775 52.8869 82.6381 52.5383 82.3592 52.3191C82.0803 52.1 81.7117 51.9008 81.2535 51.7215C80.8152 51.5621 80.1977 51.4127 79.4008 51.2732C77.7672 50.9943 75.5459 50.7852 72.7369 50.6457C69.9279 50.5062 67.7066 50.2273 66.073 49.809C64.4394 49.4105 63.1047 48.8926 62.0687 48.2551C60.0566 47.0398 59.0506 45.3963 59.0506 43.3244C59.0506 40.3361 61.0727 37.9156 65.1168 36.0629C63.2641 35.0469 61.7898 33.7121 60.6941 32.0586C59.5984 30.3852 59.0506 28.5822 59.0506 26.6498C59.0506 24.6975 59.4092 23.0141 60.1264 21.5996C60.8635 20.1652 61.8894 18.9301 63.2043 17.8941C65.9734 15.6629 69.5494 14.5473 73.9322 14.5473C75.8846 14.5473 77.8469 14.8461 79.8191 15.4438C82.648 12.7145 85.2678 11.3498 87.6783 11.3498C88.6943 11.3498 89.4414 11.5191 89.9195 11.8578C90.4176 12.1965 90.6666 12.6248 90.6666 13.1428C90.6666 13.6607 90.4973 14.0393 90.1586 14.2783C89.8199 14.4975 89.5012 14.607 89.2023 14.607C88.6644 14.607 88.2062 14.5473 87.8277 14.4277C87.2699 14.2285 86.7021 14.1289 86.1244 14.1289C85.0486 14.1289 83.6939 14.876 82.0603 16.3701C85.3076 17.9639 87.4293 20.2549 88.4254 23.2432C88.7441 24.2393 88.9035 25.4645 88.9035 26.9188C88.9035 28.3531 88.4852 29.7875 87.6484 31.2219C86.8117 32.6563 85.6961 33.8914 84.3016 34.9273C81.393 37.0789 77.9764 38.1547 74.0518 38.1547C71.9799 38.1945 69.9279 37.8957 67.8959 37.2582ZM74.1713 35.9732C77.3986 35.9334 80.1777 35.1465 82.5086 33.6125C85.198 31.8594 86.5428 29.4887 86.5428 26.5004C86.5428 23.5121 85.218 21.1016 82.5684 19.2688C80.1379 17.5953 77.3389 16.7287 74.1713 16.6689V35.9732ZM119.175 18.3424C118.677 18.0236 118.139 17.8643 117.561 17.8643C116.983 17.8643 116.386 18.0037 115.768 18.2826C115.151 18.5416 114.503 18.9102 113.826 19.3883C112.411 20.4043 111.106 21.759 109.911 23.4523V47H97.0615V15.0852H109.911V20.1951C113.318 16.4299 117.173 14.5473 121.476 14.5473C128.508 14.5473 132.024 17.9539 132.024 24.7672V47H119.175V18.3424ZM192.836 5.9709L192.657 9.67637V27.5463C192.657 33.4432 190.963 38.2344 187.577 41.9199C184.11 45.6852 179.508 47.5678 173.771 47.5678C167.635 47.5678 162.854 45.6453 159.427 41.8004C156.239 38.2742 154.646 33.752 154.646 28.2336V4.71582H169.916V45.0277C171.45 45.2469 173.133 45.3564 174.966 45.3564C176.819 45.3564 178.691 44.9879 180.584 44.2508C182.496 43.5137 184.17 42.3582 185.604 40.7844C188.712 37.3977 190.286 32.4471 190.326 25.9326V9.73613C190.326 9.13848 190.276 8.43125 190.176 7.61446C190.097 6.79766 190.057 6.23985 190.057 5.94102C190.057 4.90508 190.545 4.38711 191.521 4.38711C192.398 4.38711 192.836 4.91504 192.836 5.9709ZM222.689 47.5678C219.92 47.5678 217.24 46.9402 214.65 45.6852V56.5625H202.369V15.0852H214.65V16.7287C217.26 15.2744 219.93 14.5473 222.659 14.5473C225.388 14.5473 227.799 14.9557 229.891 15.7725C231.982 16.5893 233.775 17.7148 235.27 19.1492C238.357 22.1773 239.901 26.0521 239.901 30.7736C239.901 35.535 238.377 39.4895 235.329 42.6371C232.182 45.9242 227.968 47.5678 222.689 47.5678ZM222.599 16.7287C219.651 16.7287 217.001 17.5455 214.65 19.1791V43.0256C217.34 44.5795 220.268 45.3564 223.436 45.3564H224.213C224.452 45.3564 224.681 45.3365 224.9 45.2967V16.908C224.143 16.7885 223.376 16.7287 222.599 16.7287Z" fill="#15A566"/>
</svg>
