<svg width="240" height="59" viewBox="0 0 240 59" fill="none" xmlns="http://www.w3.org/2000/svg">
<path d="M2.78926 45.3484C2.09199 44.95 1.48437 44.5316 0.966406 44.0934C0.468359 43.6551 0.219336 43.1869 0.219336 42.6889C0.219336 41.7326 0.627734 41.2545 1.44453 41.2545C1.98242 41.2545 2.58008 41.5533 3.2375 42.151C3.89492 42.7486 4.63203 43.2766 5.44883 43.7348C6.26562 44.173 7.15215 44.5516 8.1084 44.8703C10.0807 45.5277 11.9035 45.8564 13.577 45.8564C15.2504 45.8564 16.5354 45.7469 17.4318 45.5277C18.3482 45.3086 19.1152 45.0098 19.7328 44.6313C21.0477 43.8145 21.7051 42.7686 21.7051 41.4936C21.7051 40.3182 21.1373 39.1328 20.0018 37.9375C19.0455 36.9215 17.6908 35.7063 15.9377 34.2918L10.8277 30.2875C5.70781 26.343 2.68965 22.7371 1.77324 19.4699C1.45449 18.3344 1.29512 17.0693 1.29512 15.6748C1.29512 14.2803 1.60391 12.9057 2.22148 11.551C2.85898 10.1963 3.79531 9.01094 5.03047 7.99492C7.68008 5.7836 11.2859 4.67793 15.848 4.67793C18.1789 4.67793 20.2707 5.02656 22.1234 5.72383C23.9762 6.40117 25.2412 7.00879 25.9186 7.54668C26.5959 8.08457 26.9346 8.57266 26.9346 9.01094C26.9346 9.92735 26.5561 10.3855 25.799 10.3855C25.3607 10.3855 24.8926 10.1664 24.3945 9.72813C23.8965 9.28985 23.3387 8.91133 22.7211 8.59258C22.1234 8.25391 21.4361 7.95508 20.6592 7.6961C18.9857 7.13828 17.3422 6.85938 15.7285 6.85938C12.7602 6.85938 11.276 7.83555 11.276 9.78789C11.276 10.6047 11.5449 11.3617 12.0828 12.059C13.0391 13.2742 14.9018 15.0174 17.6709 17.2885C20.46 19.5396 22.6912 21.5119 24.3646 23.2053C26.058 24.8986 27.343 26.4227 28.2195 27.7773C29.6141 29.909 30.3113 32.1303 30.3113 34.4412C30.3113 36.7322 29.9029 38.6846 29.0861 40.2982C28.2893 41.892 27.1637 43.2666 25.7094 44.4221C22.6414 46.8525 18.8363 48.0678 14.2941 48.0678C9.75195 48.0678 5.91699 47.1613 2.78926 45.3484ZM44.5057 10.3557C42.4537 10.3557 40.85 9.89746 39.6945 8.98106C38.5391 8.06465 37.9613 6.85938 37.9613 5.36524C37.9613 4.11016 38.5988 3.03438 39.8738 2.13789C41.2285 1.18164 42.6629 0.703518 44.177 0.703518C45.691 0.703518 46.8564 0.852932 47.6732 1.15176C48.51 1.45059 49.2172 1.83906 49.7949 2.31719C50.9504 3.29336 51.5281 4.42891 51.5281 5.72383C51.5281 7.01875 50.8707 8.11446 49.5559 9.01094C48.241 9.90742 46.5576 10.3557 44.5057 10.3557ZM38.2303 15.5852H51.0799V47.5H38.2303V15.5852ZM67.3959 37.7582C65.6228 38.2961 64.7363 38.8838 64.7363 39.5213C64.7363 40.1389 65.2543 40.5672 66.2902 40.8063C68.3023 41.2844 71.0715 41.5732 74.5977 41.6729C78.1238 41.7525 80.7734 42.0215 82.5465 42.4797C84.3394 42.918 85.7639 43.4758 86.8197 44.1531C88.7322 45.4082 89.6885 47.0717 89.6885 49.1436C89.6885 51.7334 88.4035 53.8352 85.8336 55.4488C82.9848 57.2219 78.9705 58.1084 73.7908 58.1084C68.4318 58.1084 64.0092 57.3115 60.5228 55.7178C59.2678 55.1002 58.6402 54.4029 58.6402 53.626C58.6402 53.2873 58.7598 53.0184 58.9988 52.8191C59.2578 52.6199 59.5268 52.5203 59.8057 52.5203C60.1443 52.5203 60.5328 52.6498 60.9711 52.9088C61.9871 53.4865 62.9234 53.9646 63.7801 54.3432C64.6566 54.7416 66.0213 55.1201 67.874 55.4787C69.7268 55.8373 71.5098 56.0166 73.223 56.0166C74.9562 56.0166 76.3607 55.9369 77.4365 55.7775C78.5322 55.6381 79.4387 55.4687 80.1559 55.2695C81.5703 54.8512 82.2775 54.383 82.2775 53.865C82.2775 53.3869 82.1381 53.0383 81.8592 52.8191C81.5803 52.6 81.2117 52.4008 80.7535 52.2215C80.3152 52.0621 79.6977 51.9127 78.9008 51.7732C77.2672 51.4943 75.0459 51.2852 72.2369 51.1457C69.4279 51.0062 67.2066 50.7273 65.573 50.309C63.9394 49.9105 62.6047 49.3926 61.5687 48.7551C59.5566 47.5398 58.5506 45.8963 58.5506 43.8244C58.5506 40.8361 60.5727 38.4156 64.6168 36.5629C62.7641 35.5469 61.2898 34.2121 60.1941 32.5586C59.0984 30.8852 58.5506 29.0822 58.5506 27.1498C58.5506 25.1975 58.9092 23.5141 59.6264 22.0996C60.3635 20.6652 61.3894 19.4301 62.7043 18.3941C65.4734 16.1629 69.0494 15.0473 73.4322 15.0473C75.3846 15.0473 77.3469 15.3461 79.3191 15.9438C82.148 13.2145 84.7678 11.8498 87.1783 11.8498C88.1943 11.8498 88.9414 12.0191 89.4195 12.3578C89.9176 12.6965 90.1666 13.1248 90.1666 13.6428C90.1666 14.1607 89.9973 14.5393 89.6586 14.7783C89.3199 14.9975 89.0012 15.107 88.7023 15.107C88.1644 15.107 87.7062 15.0473 87.3277 14.9277C86.7699 14.7285 86.2021 14.6289 85.6244 14.6289C84.5486 14.6289 83.1939 15.376 81.5603 16.8701C84.8076 18.4639 86.9293 20.7549 87.9254 23.7432C88.2441 24.7393 88.4035 25.9645 88.4035 27.4188C88.4035 28.8531 87.9852 30.2875 87.1484 31.7219C86.3117 33.1563 85.1961 34.3914 83.8016 35.4273C80.893 37.5789 77.4764 38.6547 73.5518 38.6547C71.4799 38.6945 69.4279 38.3957 67.3959 37.7582ZM73.6713 36.4732C76.8986 36.4334 79.6777 35.6465 82.0086 34.1125C84.698 32.3594 86.0428 29.9887 86.0428 27.0004C86.0428 24.0121 84.718 21.6016 82.0684 19.7688C79.6379 18.0953 76.8389 17.2287 73.6713 17.1689V36.4732ZM118.675 18.8424C118.177 18.5236 117.639 18.3643 117.061 18.3643C116.483 18.3643 115.886 18.5037 115.268 18.7826C114.651 19.0416 114.003 19.4102 113.326 19.8883C111.911 20.9043 110.606 22.259 109.411 23.9523V47.5H96.5615V15.5852H109.411V20.6951C112.818 16.9299 116.673 15.0473 120.976 15.0473C128.008 15.0473 131.524 18.4539 131.524 25.2672V47.5H118.675V18.8424ZM192.336 6.4709L192.157 10.1764V28.0463C192.157 33.9432 190.463 38.7344 187.077 42.4199C183.61 46.1852 179.008 48.0678 173.271 48.0678C167.135 48.0678 162.354 46.1453 158.927 42.3004C155.739 38.7742 154.146 34.252 154.146 28.7336V5.21582H169.416V45.5277C170.95 45.7469 172.633 45.8564 174.466 45.8564C176.319 45.8564 178.191 45.4879 180.084 44.7508C181.996 44.0137 183.67 42.8582 185.104 41.2844C188.212 37.8977 189.786 32.9471 189.826 26.4326V10.2361C189.826 9.63848 189.776 8.93125 189.676 8.11446C189.597 7.29766 189.557 6.73985 189.557 6.44102C189.557 5.40508 190.045 4.88711 191.021 4.88711C191.898 4.88711 192.336 5.41504 192.336 6.4709ZM222.189 48.0678C219.42 48.0678 216.74 47.4402 214.15 46.1852V57.0625H201.869V15.5852H214.15V17.2287C216.76 15.7744 219.43 15.0473 222.159 15.0473C224.888 15.0473 227.299 15.4557 229.391 16.2725C231.482 17.0893 233.275 18.2148 234.77 19.6492C237.857 22.6773 239.401 26.5521 239.401 31.2736C239.401 36.035 237.877 39.9895 234.829 43.1371C231.682 46.4242 227.468 48.0678 222.189 48.0678ZM222.099 17.2287C219.151 17.2287 216.501 18.0455 214.15 19.6791V43.5256C216.84 45.0795 219.768 45.8564 222.936 45.8564H223.713C223.952 45.8564 224.181 45.8365 224.4 45.7967V17.408C223.643 17.2885 222.876 17.2287 222.099 17.2287Z" fill="#2CEC99"/>
</svg>
